<svg width="402" height="258" viewBox="0 0 402 258" fill="none" xmlns="http://www.w3.org/2000/svg">
<g clip-path="url(#clip0_761_4)">
<path d="M25.824 25.328L26.88 31.088C24.96 32.016 22.208 32.48 18.624 32.48C13.216 32.48 9.04 30.976 6.096 27.968C3.152 24.96 1.68 21.056 1.68 16.256C1.68 10.944 3.344 6.768 6.672 3.728C10.032 0.687999 14.256 -0.832001 19.344 -0.832001C22.736 -0.832001 25.392 -0.368001 27.312 0.559999L25.776 6.368C23.92 5.568 21.872 5.168 19.632 5.168C16.592 5.168 14.112 6.096 12.192 7.952C10.304 9.776 9.36 12.416 9.36 15.872C9.36 19.104 10.272 21.664 12.096 23.552C13.92 25.44 16.448 26.384 19.68 26.384C22.112 26.384 24.16 26.032 25.824 25.328ZM31.4749 8.528H38.7709V17.888H39.5389L45.4909 8.528H53.9869L45.3469 18.656C47.7469 19.072 49.7149 21.216 51.2509 25.088C51.3469 25.312 51.7309 26.304 52.4029 28.064C53.0749 29.824 53.6349 31.136 54.0829 32H46.4509C46.0989 31.424 45.3949 29.696 44.3389 26.816C43.3149 24.064 41.6989 22.688 39.4909 22.688H38.7709V32H31.4749V8.528ZM56.88 8.528H63.792V15.728C63.792 17.84 63.664 21.04 63.408 25.328H63.6C63.952 24.496 64.4 23.36 64.944 21.92C65.488 20.48 65.936 19.376 66.288 18.608L70.848 8.528H79.776V32H72.864V24.848C72.864 24.016 73.008 20.64 73.296 14.72H73.104C72.144 17.408 71.328 19.504 70.656 21.008C70.112 22.192 69.28 24.048 68.16 26.576C67.04 29.104 66.24 30.912 65.76 32H56.88V8.528ZM88.6886 8.528H107.409V26.864L110.001 26.96L109.713 39.584H104.193L103.953 32H89.1206L88.8326 39.584H83.3126L83.1206 27.056L85.3286 26.864C86.3526 25.264 87.1206 23.632 87.6326 21.968C88.3366 19.408 88.6886 16.848 88.6886 14.288V8.528ZM95.0246 13.856V16.592C95.0246 18.448 94.7366 20.48 94.1606 22.688C93.8726 23.904 93.3286 25.248 92.5286 26.72H100.305V13.856H95.0246ZM113.881 8.528H121.177V17.888H121.945L127.897 8.528H136.393L127.753 18.656C130.153 19.072 132.121 21.216 133.657 25.088C133.753 25.312 134.137 26.304 134.809 28.064C135.481 29.824 136.041 31.136 136.489 32H128.857C128.505 31.424 127.801 29.696 126.745 26.816C125.721 24.064 124.105 22.688 121.897 22.688H121.177V32H113.881V8.528ZM159.339 18.128V26.336C159.339 28.96 159.467 30.848 159.723 32H153.147L152.715 29.648H152.571C151.003 31.568 148.763 32.528 145.851 32.528C143.579 32.528 141.739 31.824 140.331 30.416C138.955 28.976 138.267 27.28 138.267 25.328C138.267 22.352 139.483 20.112 141.915 18.608C144.379 17.104 147.755 16.352 152.043 16.352V16.064C152.043 14.048 150.619 13.04 147.771 13.04C145.403 13.04 143.243 13.616 141.291 14.768L139.947 10.112C142.475 8.704 145.515 8 149.067 8C152.715 8 155.339 8.928 156.939 10.784C158.539 12.64 159.339 15.088 159.339 18.128ZM152.283 23.456V20.912C147.739 20.912 145.467 22.144 145.467 24.608C145.467 25.504 145.723 26.192 146.235 26.672C146.779 27.152 147.483 27.392 148.347 27.392C149.211 27.392 149.995 27.136 150.699 26.624C151.403 26.112 151.883 25.472 152.139 24.704C152.235 24.32 152.283 23.904 152.283 23.456ZM196.13 32H174.002V27.584L177.986 23.984C181.698 20.656 184.322 18.048 185.858 16.16C187.394 14.24 188.178 12.416 188.21 10.688C188.21 9.344 187.778 8.256 186.914 7.424C186.082 6.56 184.818 6.128 183.122 6.128C180.978 6.128 178.754 6.976 176.45 8.672L174.386 3.488C177.17 1.344 180.562 0.271999 184.562 0.271999C188.018 0.271999 190.706 1.184 192.626 3.008C194.546 4.8 195.506 7.152 195.506 10.064C195.506 12.464 194.786 14.72 193.346 16.832C191.906 18.944 189.858 21.168 187.202 23.504L184.322 25.904V26H196.13V32ZM221.411 0.799998V6.8H209.315L208.643 11.6C209.539 11.536 210.211 11.504 210.659 11.504C214.083 11.504 216.819 12.256 218.867 13.76C221.395 15.456 222.659 18.064 222.659 21.584C222.659 24.624 221.443 27.216 219.011 29.36C216.579 31.472 213.331 32.528 209.267 32.528C205.715 32.528 202.819 31.936 200.579 30.752L201.923 25.28C203.971 26.304 206.307 26.816 208.931 26.816C210.627 26.816 212.083 26.416 213.299 25.616C214.547 24.784 215.171 23.6 215.171 22.064C215.171 18.608 212.243 16.88 206.387 16.88C204.851 16.88 203.459 16.976 202.211 17.168L204.227 0.799998H221.411ZM235.22 0.271999H235.268C237.86 0.271999 239.892 1.136 241.364 2.864C242.868 4.592 243.62 6.832 243.62 9.584C243.62 12.688 242.772 15.12 241.076 16.88C239.412 18.64 237.38 19.52 234.98 19.52C232.548 19.52 230.516 18.656 228.884 16.928C227.284 15.2 226.484 12.912 226.484 10.064C226.484 7.216 227.284 4.88 228.884 3.056C230.484 1.2 232.596 0.271999 235.22 0.271999ZM235.076 4.256H235.028C234.004 4.256 233.22 4.784 232.676 5.84C232.164 6.896 231.908 8.256 231.908 9.92C231.876 11.584 232.148 12.944 232.724 14C233.3 15.024 234.1 15.536 235.124 15.536C237.172 15.536 238.196 13.648 238.196 9.872C238.196 6.128 237.156 4.256 235.076 4.256ZM239.252 32.528H235.316L253.268 0.319999H257.156L239.252 32.528ZM257.684 13.232H257.732C260.324 13.232 262.356 14.096 263.828 15.824C265.332 17.552 266.084 19.776 266.084 22.496C266.084 25.6 265.236 28.032 263.54 29.792C261.876 31.552 259.844 32.432 257.444 32.432C255.012 32.432 252.996 31.584 251.396 29.888C249.796 28.16 248.996 25.872 248.996 23.024C248.996 20.208 249.796 17.872 251.396 16.016C252.996 14.16 255.092 13.232 257.684 13.232ZM257.588 17.216H257.54C256.516 17.216 255.732 17.744 255.188 18.8C254.676 19.824 254.42 21.168 254.42 22.832C254.388 24.496 254.644 25.856 255.188 26.912C255.764 27.936 256.564 28.448 257.588 28.448C259.636 28.448 260.66 26.576 260.66 22.832C260.66 19.088 259.636 17.216 257.588 17.216ZM280.005 8.528H287.301V17.024H294.693V8.528H301.989V32H294.693V22.688H287.301V32H280.005V8.528ZM327.386 18.128V26.336C327.386 28.96 327.514 30.848 327.77 32H321.194L320.762 29.648H320.618C319.05 31.568 316.81 32.528 313.898 32.528C311.626 32.528 309.786 31.824 308.378 30.416C307.002 28.976 306.314 27.28 306.314 25.328C306.314 22.352 307.53 20.112 309.962 18.608C312.426 17.104 315.802 16.352 320.09 16.352V16.064C320.09 14.048 318.666 13.04 315.818 13.04C313.45 13.04 311.29 13.616 309.338 14.768L307.994 10.112C310.522 8.704 313.562 8 317.114 8C320.762 8 323.386 8.928 324.986 10.784C326.586 12.64 327.386 15.088 327.386 18.128ZM320.33 23.456V20.912C315.786 20.912 313.514 22.144 313.514 24.608C313.514 25.504 313.77 26.192 314.282 26.672C314.826 27.152 315.53 27.392 316.394 27.392C317.258 27.392 318.042 27.136 318.746 26.624C319.45 26.112 319.93 25.472 320.186 24.704C320.282 24.32 320.33 23.904 320.33 23.456ZM0.288 44.528H8.4L11.904 56.096C12.416 57.856 12.8 59.312 13.056 60.464H13.2C13.328 59.952 13.52 59.136 13.776 58.016C14.064 56.896 14.224 56.24 14.256 56.048L17.136 44.528H24.96L19.488 59.984C17.888 64.464 16.464 67.84 15.216 70.112C13.968 72.384 12.64 74.144 11.232 75.392C9.12 77.28 6.768 78.352 4.176 78.608L2.64 72.464C3.664 72.24 4.72 71.824 5.808 71.216C7.056 70.544 8.064 69.568 8.832 68.288C9.088 67.872 9.216 67.52 9.216 67.232C9.216 66.88 9.12 66.48 8.928 66.032L0.288 44.528ZM44.1956 62L45.0596 67.376C43.5236 68.112 41.3476 68.48 38.5316 68.48C34.7236 68.48 31.6996 67.408 29.4596 65.264C27.2196 63.088 26.0996 60.16 26.0996 56.48C26.0996 52.928 27.2836 49.968 29.6516 47.6C32.0196 45.232 35.3156 44.048 39.5396 44.048C41.6196 44.048 43.4756 44.352 45.1076 44.96L43.9556 50.384C42.8676 49.904 41.5076 49.664 39.8756 49.664C37.9876 49.664 36.4516 50.272 35.2676 51.488C34.1156 52.704 33.5556 54.272 33.5876 56.192C33.5876 58.272 34.1956 59.888 35.4116 61.04C36.6276 62.192 38.1636 62.768 40.0196 62.768C41.6196 62.768 43.0116 62.512 44.1956 62ZM47.4521 44.528H68.3801V50.144H61.5641V68H54.2681V50.144H47.4521V44.528ZM90.8078 54.128V62.336C90.8078 64.96 90.9358 66.848 91.1918 68H84.6158L84.1838 65.648H84.0398C82.4718 67.568 80.2318 68.528 77.3198 68.528C75.0478 68.528 73.2078 67.824 71.7998 66.416C70.4238 64.976 69.7358 63.28 69.7358 61.328C69.7358 58.352 70.9518 56.112 73.3838 54.608C75.8478 53.104 79.2238 52.352 83.5118 52.352V52.064C83.5118 50.048 82.0878 49.04 79.2398 49.04C76.8718 49.04 74.7118 49.616 72.7598 50.768L71.4158 46.112C73.9438 44.704 76.9838 44 80.5358 44C84.1838 44 86.8078 44.928 88.4078 46.784C90.0078 48.64 90.8078 51.088 90.8078 54.128ZM83.7518 59.456V56.912C79.2078 56.912 76.9358 58.144 76.9358 60.608C76.9358 61.504 77.1918 62.192 77.7038 62.672C78.2478 63.152 78.9518 63.392 79.8158 63.392C80.6798 63.392 81.4638 63.136 82.1678 62.624C82.8718 62.112 83.3518 61.472 83.6078 60.704C83.7038 60.32 83.7518 59.904 83.7518 59.456ZM96.5831 44.528H103.879V53.024H111.271V44.528H118.567V68H111.271V58.688H103.879V68H96.5831V44.528ZM135.276 68.528H135.228C131.708 68.528 128.796 67.44 126.492 65.264C124.22 63.088 123.084 60.144 123.084 56.432C123.084 52.656 124.22 49.648 126.492 47.408C128.796 45.136 131.852 44 135.66 44C139.212 44 142.092 45.12 144.3 47.36C146.508 49.6 147.612 52.496 147.612 56.048C147.612 60.08 146.396 63.168 143.964 65.312C141.564 67.456 138.668 68.528 135.276 68.528ZM135.372 63.296H135.42C136.86 63.296 137.996 62.656 138.828 61.376C139.66 60.096 140.076 58.384 140.076 56.24C140.076 54.32 139.676 52.672 138.876 51.296C138.108 49.92 136.956 49.232 135.42 49.232C133.82 49.232 132.62 49.92 131.82 51.296C131.02 52.672 130.62 54.336 130.62 56.288C130.62 58.336 131.036 60.016 131.868 61.328C132.7 62.64 133.868 63.296 135.372 63.296ZM152.083 67.904V44.816C154.643 44.4 157.795 44.192 161.539 44.192C169.283 44.192 173.155 46.192 173.155 50.192C173.155 51.6 172.675 52.736 171.715 53.6C170.787 54.432 169.667 54.976 168.355 55.232V55.376C170.147 55.664 171.555 56.304 172.579 57.296C173.635 58.256 174.163 59.52 174.163 61.088C174.163 65.92 169.539 68.336 160.291 68.336C157.059 68.336 154.323 68.192 152.083 67.904ZM159.283 48.848V53.696H161.155C164.355 53.696 165.955 52.848 165.955 51.152C165.955 49.52 164.547 48.704 161.731 48.704C161.443 48.704 161.155 48.72 160.867 48.752C160.611 48.752 160.323 48.768 160.003 48.8C159.715 48.832 159.475 48.848 159.283 48.848ZM159.235 57.92V63.824C159.747 63.888 160.563 63.92 161.683 63.92C165.011 63.92 166.675 62.912 166.675 60.896C166.675 58.912 164.883 57.92 161.299 57.92H159.235ZM178.616 44.528H185.912V53.888H186.68L192.632 44.528H201.128L192.488 54.656C194.888 55.072 196.856 57.216 198.392 61.088C198.488 61.312 198.872 62.304 199.544 64.064C200.216 65.824 200.776 67.136 201.224 68H193.592C193.24 67.424 192.536 65.696 191.48 62.816C190.456 60.064 188.84 58.688 186.632 58.688H185.912V68H178.616V44.528ZM201.991 44.528H210.103L213.607 56.096C214.119 57.856 214.503 59.312 214.759 60.464H214.903C215.031 59.952 215.223 59.136 215.479 58.016C215.767 56.896 215.927 56.24 215.959 56.048L218.839 44.528H226.663L221.191 59.984C219.591 64.464 218.167 67.84 216.919 70.112C215.671 72.384 214.343 74.144 212.935 75.392C210.823 77.28 208.471 78.352 205.879 78.608L204.343 72.464C205.367 72.24 206.423 71.824 207.511 71.216C208.759 70.544 209.767 69.568 210.535 68.288C210.791 67.872 210.919 67.52 210.919 67.232C210.919 66.88 210.823 66.48 210.631 66.032L201.991 44.528ZM239.747 35.648H261.203V41.6H246.995V47.168C248.211 47.008 249.523 46.928 250.931 46.928C254.643 46.928 257.683 47.792 260.051 49.52C262.547 51.312 263.795 53.904 263.795 57.296C263.795 60.368 262.771 62.816 260.723 64.64C257.907 67.104 253.523 68.336 247.571 68.336C244.531 68.336 241.923 68.176 239.747 67.856V35.648ZM246.995 52.496V62.672C247.731 62.8 248.659 62.864 249.779 62.864C251.699 62.864 253.283 62.32 254.531 61.232C255.587 60.24 256.115 58.976 256.115 57.44C256.115 55.872 255.539 54.64 254.387 53.744C253.139 52.784 251.523 52.304 249.539 52.304C248.995 52.304 248.147 52.368 246.995 52.496ZM268.381 77.504V52.4C268.381 50.096 268.317 47.472 268.189 44.528H274.525L274.861 47.792H274.957C276.749 45.264 279.357 44 282.781 44C285.469 44 287.757 45.088 289.645 47.264C291.565 49.44 292.525 52.336 292.525 55.952C292.525 59.952 291.469 63.056 289.357 65.264C287.245 67.44 284.749 68.528 281.869 68.528C279.053 68.528 277.021 67.632 275.773 65.84H275.677V77.504H268.381ZM275.677 54.704V57.92C275.677 58.464 275.725 58.976 275.821 59.456C276.077 60.448 276.589 61.28 277.357 61.952C278.157 62.592 279.069 62.912 280.093 62.912C281.661 62.912 282.893 62.32 283.789 61.136C284.685 59.92 285.133 58.304 285.133 56.288C285.133 54.336 284.701 52.752 283.837 51.536C282.973 50.32 281.757 49.712 280.189 49.712C279.165 49.712 278.237 50.064 277.405 50.768C276.573 51.44 276.045 52.32 275.821 53.408C275.725 53.792 275.677 54.224 275.677 54.704ZM317.805 58.592H302.685C302.813 60.032 303.485 61.136 304.701 61.904C305.949 62.672 307.485 63.056 309.309 63.056C311.645 63.056 313.805 62.72 315.789 62.048L316.749 66.992C314.381 67.984 311.549 68.48 308.253 68.48C304.317 68.48 301.245 67.424 299.037 65.312C296.829 63.168 295.725 60.24 295.725 56.528C295.725 53.232 296.749 50.32 298.797 47.792C300.877 45.264 303.805 44 307.581 44C311.101 44 313.725 45.136 315.453 47.408C317.181 49.68 318.045 52.448 318.045 55.712C318.045 56.736 317.965 57.696 317.805 58.592ZM302.637 53.6H311.277C311.277 52.416 310.957 51.328 310.317 50.336C309.709 49.344 308.669 48.848 307.197 48.848C305.789 48.848 304.701 49.344 303.933 50.336C303.197 51.328 302.765 52.416 302.637 53.6ZM322.428 44.528H329.724V53.888H330.492L336.444 44.528H344.94L336.3 54.656C338.7 55.072 340.668 57.216 342.204 61.088C342.3 61.312 342.684 62.304 343.356 64.064C344.028 65.824 344.588 67.136 345.036 68H337.404C337.052 67.424 336.348 65.696 335.292 62.816C334.268 60.064 332.652 58.688 330.444 58.688H329.724V68H322.428V44.528ZM368.289 58.592H353.169C353.297 60.032 353.969 61.136 355.185 61.904C356.433 62.672 357.969 63.056 359.793 63.056C362.129 63.056 364.289 62.72 366.273 62.048L367.233 66.992C364.865 67.984 362.033 68.48 358.737 68.48C354.801 68.48 351.729 67.424 349.521 65.312C347.313 63.168 346.209 60.24 346.209 56.528C346.209 53.232 347.233 50.32 349.281 47.792C351.361 45.264 354.289 44 358.065 44C361.585 44 364.209 45.136 365.937 47.408C367.665 49.68 368.529 52.448 368.529 55.712C368.529 56.736 368.449 57.696 368.289 58.592ZM353.121 53.6H361.761C361.761 52.416 361.441 51.328 360.801 50.336C360.193 49.344 359.153 48.848 357.681 48.848C356.273 48.848 355.185 49.344 354.417 50.336C353.681 51.328 353.249 52.416 353.121 53.6ZM370.14 44.528H391.068V50.144H384.252V68H376.956V50.144H370.14V44.528ZM19.68 98L20.544 103.376C19.008 104.112 16.832 104.48 14.016 104.48C10.208 104.48 7.184 103.408 4.944 101.264C2.704 99.088 1.584 96.16 1.584 92.48C1.584 88.928 2.768 85.968 5.136 83.6C7.504 81.232 10.8 80.048 15.024 80.048C17.104 80.048 18.96 80.352 20.592 80.96L19.44 86.384C18.352 85.904 16.992 85.664 15.36 85.664C13.472 85.664 11.936 86.272 10.752 87.488C9.6 88.704 9.04 90.272 9.072 92.192C9.072 94.272 9.68 95.888 10.896 97.04C12.112 98.192 13.648 98.768 15.504 98.768C17.104 98.768 18.496 98.512 19.68 98ZM24.5363 80.528H31.4483V87.728C31.4483 89.84 31.3203 93.04 31.0643 97.328H31.2563C31.6083 96.496 32.0563 95.36 32.6003 93.92C33.1443 92.48 33.5923 91.376 33.9443 90.608L38.5043 80.528H47.4323V104H40.5203V96.848C40.5203 96.016 40.6643 92.64 40.9523 86.72H40.7603C39.8003 89.408 38.9843 91.504 38.3123 93.008C37.7683 94.192 36.9363 96.048 35.8163 98.576C34.6963 101.104 33.8963 102.912 33.4163 104H24.5363V80.528ZM69.9769 98L70.8409 103.376C69.3049 104.112 67.1289 104.48 64.3129 104.48C60.5049 104.48 57.4809 103.408 55.2409 101.264C53.0009 99.088 51.8809 96.16 51.8809 92.48C51.8809 88.928 53.0649 85.968 55.4329 83.6C57.8009 81.232 61.0969 80.048 65.3209 80.048C67.4009 80.048 69.2569 80.352 70.8889 80.96L69.7369 86.384C68.6489 85.904 67.2889 85.664 65.6569 85.664C63.7689 85.664 62.2329 86.272 61.0489 87.488C59.8969 88.704 59.3369 90.272 59.3689 92.192C59.3689 94.272 59.9769 95.888 61.1929 97.04C62.4089 98.192 63.9449 98.768 65.8009 98.768C67.4009 98.768 68.7929 98.512 69.9769 98ZM73.2334 80.528H94.1614V86.144H87.3454V104H80.0494V86.144H73.2334V80.528ZM117.742 94.592H102.622C102.75 96.032 103.422 97.136 104.638 97.904C105.886 98.672 107.422 99.056 109.246 99.056C111.582 99.056 113.742 98.72 115.726 98.048L116.686 102.992C114.318 103.984 111.486 104.48 108.19 104.48C104.254 104.48 101.182 103.424 98.9741 101.312C96.7661 99.168 95.6621 96.24 95.6621 92.528C95.6621 89.232 96.6861 86.32 98.7341 83.792C100.814 81.264 103.742 80 107.518 80C111.038 80 113.662 81.136 115.39 83.408C117.118 85.68 117.982 88.448 117.982 91.712C117.982 92.736 117.902 93.696 117.742 94.592ZM102.574 89.6H111.214C111.214 88.416 110.894 87.328 110.254 86.336C109.646 85.344 108.606 84.848 107.134 84.848C105.726 84.848 104.638 85.344 103.87 86.336C103.134 87.328 102.702 88.416 102.574 89.6ZM121.55 104L123.182 80.528H132.494L135.038 89.408C135.774 92.064 136.286 94.032 136.574 95.312H136.718C136.942 94.416 137.566 92.272 138.59 88.88L141.182 80.528H150.398L151.838 104H145.07L144.686 94.592C144.686 94.144 144.654 92.928 144.59 90.944C144.526 88.96 144.478 87.44 144.446 86.384H144.302C142.894 91.184 142.142 93.744 142.046 94.064L138.926 103.616H133.598L130.814 94.304C130.526 93.216 129.886 90.624 128.894 86.528H128.702C128.67 87.232 128.622 88.592 128.558 90.608C128.526 92.624 128.494 94 128.462 94.736L128.078 104H121.55Z" fill="black"/>
<path d="M1.206 123.868H10.998V136H8.262V126.118H3.942V136H1.206V123.868ZM18.5356 136.198H18.5176C16.7656 136.198 15.3736 135.616 14.3416 134.452C13.3216 133.276 12.8116 131.8 12.8116 130.024C12.8116 128.188 13.3516 126.67 14.4316 125.47C15.5236 124.27 16.9516 123.67 18.7156 123.67C20.5156 123.67 21.9256 124.258 22.9456 125.434C23.9656 126.598 24.4756 128.056 24.4756 129.808C24.4756 131.788 23.9296 133.348 22.8376 134.488C21.7576 135.628 20.3236 136.198 18.5356 136.198ZM18.6436 134.02H18.6616C19.5736 134.02 20.2876 133.636 20.8036 132.868C21.3196 132.1 21.5776 131.11 21.5776 129.898C21.5776 128.758 21.3196 127.798 20.8036 127.018C20.2876 126.238 19.5736 125.848 18.6616 125.848C17.7496 125.848 17.0296 126.238 16.5016 127.018C15.9736 127.798 15.7096 128.776 15.7096 129.952C15.7096 131.128 15.9736 132.1 16.5016 132.868C17.0296 133.636 17.7436 134.02 18.6436 134.02ZM28.7767 123.85H31.8547L33.6187 128.224C33.7147 128.476 34.0027 129.25 34.4827 130.546H34.5367C34.5847 130.378 34.6807 130.03 34.8247 129.502C34.9687 128.974 35.0947 128.53 35.2027 128.17L36.5167 123.85H39.3967L37.1287 129.844C36.7927 130.684 36.5287 131.32 36.3367 131.752C36.1567 132.184 35.9107 132.694 35.5987 133.282C35.2987 133.858 35.0047 134.32 34.7167 134.668C33.8647 135.736 32.7907 136.27 31.4947 136.27C30.9667 136.27 30.5227 136.204 30.1627 136.072L30.3427 133.876C30.6067 133.936 30.9127 133.966 31.2607 133.966C31.6567 133.966 31.9927 133.858 32.2687 133.642C32.5567 133.426 32.7667 133.162 32.8987 132.85C32.9707 132.682 32.9587 132.49 32.8627 132.274L28.7767 123.85ZM41.2355 123.868H49.1735V133.84L50.3615 133.912L50.2355 139.06H48.1835L48.0395 136H40.9295L40.7855 139.06H38.6975L38.5895 133.912L39.6155 133.84C40.1195 132.952 40.5035 132.052 40.7675 131.14C41.0795 129.964 41.2355 128.62 41.2355 127.108V123.868ZM43.7735 126.1V127.702C43.7735 129.154 43.5935 130.492 43.2335 131.716C43.0295 132.436 42.7535 133.126 42.4055 133.786H46.4375V126.1H43.7735ZM51.936 123.868H54.456V127.468C54.456 129.4 54.408 131.23 54.312 132.958H54.366C55.038 131.47 55.764 130.03 56.544 128.638L59.154 123.868H61.962V136H59.442V132.418C59.442 130.306 59.508 128.602 59.64 127.306H59.586C59.046 128.686 58.356 130.126 57.516 131.626L55.05 136H51.936V123.868ZM64.3638 135.946V124.048C65.2638 123.868 66.4458 123.778 67.9098 123.778C69.5298 123.778 70.7238 124.006 71.4918 124.462C72.4518 124.978 72.9318 125.776 72.9318 126.856C72.9318 127.408 72.7638 127.912 72.4278 128.368C72.0918 128.824 71.5998 129.178 70.9518 129.43V129.466C71.6718 129.658 72.2538 130.018 72.6978 130.546C73.1418 131.062 73.3638 131.698 73.3638 132.454C73.3638 133.51 72.9438 134.368 72.1038 135.028C71.1798 135.76 69.5898 136.126 67.3338 136.126C66.1698 136.126 65.1798 136.066 64.3638 135.946ZM67.0818 125.866V128.674H67.9818C68.7018 128.674 69.2478 128.542 69.6198 128.278C70.0038 128.002 70.1958 127.636 70.1958 127.18C70.1958 126.244 69.5478 125.776 68.2518 125.776C67.7118 125.776 67.3218 125.806 67.0818 125.866ZM67.0818 130.636V134.056C67.2618 134.092 67.6158 134.11 68.1438 134.11C68.8278 134.11 69.3858 133.966 69.8178 133.678C70.2618 133.39 70.4838 132.946 70.4838 132.346C70.4838 131.77 70.2558 131.344 69.7998 131.068C69.3438 130.78 68.7498 130.636 68.0178 130.636H67.0818ZM75.2271 123.868H77.7471V127.468C77.7471 129.4 77.6991 131.23 77.6031 132.958H77.6571C78.3291 131.47 79.0551 130.03 79.8351 128.638L82.4451 123.868H85.2531V136H82.7331V132.418C82.7331 130.306 82.7991 128.602 82.9311 127.306H82.8771C82.3371 128.686 81.6471 130.126 80.8071 131.626L78.3411 136H75.2271V123.868ZM90.0128 136V126.172H86.7368V123.868H96.0608V126.172H92.7488V136H90.0128ZM104.734 128.638V130.87H100.27V133.75H105.256V136H97.5341V123.868H105.004V126.118H100.27V128.638H104.734ZM108.404 123.868H116.576V136H113.84V126.118H111.086V128.998C111.086 130.726 110.924 132.136 110.6 133.228C110.288 134.308 109.706 135.1 108.854 135.604C108.146 136 107.342 136.198 106.442 136.198L106.1 133.984C106.688 133.912 107.15 133.696 107.486 133.336C108.098 132.712 108.404 131.326 108.404 129.178V123.868ZM118.979 123.868H121.697V128.098C122.201 128.026 122.693 127.99 123.173 127.99C124.565 127.99 125.717 128.326 126.629 128.998C127.541 129.67 127.997 130.648 127.997 131.932C127.997 133.024 127.673 133.906 127.025 134.578C126.005 135.61 124.313 136.126 121.949 136.126C120.785 136.126 119.795 136.066 118.979 135.946V123.868ZM121.697 130.168V134.002C121.973 134.05 122.309 134.074 122.705 134.074C123.413 134.074 123.989 133.906 124.433 133.57C124.889 133.222 125.117 132.718 125.117 132.058C125.117 131.398 124.895 130.906 124.451 130.582C124.019 130.258 123.449 130.096 122.741 130.096C122.477 130.096 122.129 130.12 121.697 130.168ZM129.825 123.868H132.561V128.548H137.079V123.868H139.815V136H137.079V130.942H132.561V136H129.825V123.868ZM147.383 136.198H147.365C145.613 136.198 144.221 135.616 143.189 134.452C142.169 133.276 141.659 131.8 141.659 130.024C141.659 128.188 142.199 126.67 143.279 125.47C144.371 124.27 145.799 123.67 147.563 123.67C149.363 123.67 150.773 124.258 151.793 125.434C152.813 126.598 153.323 128.056 153.323 129.808C153.323 131.788 152.777 133.348 151.685 134.488C150.605 135.628 149.171 136.198 147.383 136.198ZM147.491 134.02H147.509C148.421 134.02 149.135 133.636 149.651 132.868C150.167 132.1 150.425 131.11 150.425 129.898C150.425 128.758 150.167 127.798 149.651 127.018C149.135 126.238 148.421 125.848 147.509 125.848C146.597 125.848 145.877 126.238 145.349 127.018C144.821 127.798 144.557 128.776 144.557 129.952C144.557 131.128 144.821 132.1 145.349 132.868C145.877 133.636 146.591 134.02 147.491 134.02ZM155.12 123.868H157.64V127.468C157.64 129.4 157.592 131.23 157.496 132.958H157.55C158.222 131.47 158.948 130.03 159.728 128.638L162.338 123.868H165.146V136H162.626V132.418C162.626 130.306 162.692 128.602 162.824 127.306H162.77C162.23 128.686 161.54 130.126 160.7 131.626L158.234 136H155.12V123.868ZM157.478 121.096H159.332C159.368 121.828 159.638 122.194 160.142 122.194C160.634 122.194 160.91 121.828 160.97 121.096H162.824C162.716 122.572 161.804 123.31 160.088 123.31C158.492 123.31 157.622 122.572 157.478 121.096ZM171.204 123.868H173.94V133.75H178.188V123.868H180.924V133.84L182.13 133.912L182.004 139.06H179.934L179.79 136H171.204V123.868ZM190.902 128.638V130.87H186.438V133.75H191.424V136H183.702V123.868H191.172V126.118H186.438V128.638H190.902ZM193.317 123.868H196.053V128.548H200.571V123.868H203.307V136H200.571V130.942H196.053V136H193.317V123.868ZM212.927 128.638V130.87H208.463V133.75H213.449V136H205.727V123.868H213.197V126.118H208.463V128.638H212.927ZM218.315 130.366H223.031V132.184H218.315V130.366Z" fill="#006738"/>
<path d="M43.872 162.736V173.968C42.528 173.904 40.64 173.968 38.208 174.16C32.192 174.608 27.52 176.208 24.192 178.96C20.864 181.648 18.752 185.008 17.856 189.04H18.144C21.408 185.776 25.824 184.144 31.392 184.144C36.832 184.144 41.408 185.968 45.12 189.616C48.832 193.264 50.688 198.224 50.688 204.496C50.688 210.768 48.512 216.112 44.16 220.528C39.808 224.88 34.336 227.056 27.744 227.056C19.744 227.056 13.6 224.496 9.312 219.376C5.024 214.192 2.88 207.664 2.88 199.792C2.88 188.144 6.592 178.864 14.016 171.952C20.096 166.384 28.096 163.344 38.016 162.832C39.936 162.64 41.888 162.608 43.872 162.736ZM27.456 216.304H27.552C30.048 216.304 32.064 215.28 33.6 213.232C35.136 211.12 35.904 208.464 35.904 205.264C35.904 202.192 35.104 199.632 33.504 197.584C31.904 195.536 29.6 194.512 26.592 194.512C24.672 194.512 22.944 195.024 21.408 196.048C19.872 197.072 18.752 198.384 18.048 199.984C17.6 200.816 17.376 202.064 17.376 203.728C17.504 207.312 18.432 210.32 20.16 212.752C21.888 215.12 24.32 216.304 27.456 216.304ZM114.512 163.6V175.6H90.3203L88.9763 185.2C90.7683 185.072 92.1123 185.008 93.0083 185.008C99.8563 185.008 105.328 186.512 109.424 189.52C114.48 192.912 117.008 198.128 117.008 205.168C117.008 211.248 114.576 216.432 109.712 220.72C104.848 224.944 98.3523 227.056 90.2243 227.056C83.1203 227.056 77.3283 225.872 72.8483 223.504L75.5363 212.56C79.6323 214.608 84.3043 215.632 89.5523 215.632C92.9443 215.632 95.8563 214.832 98.2883 213.232C100.784 211.568 102.032 209.2 102.032 206.128C102.032 199.216 96.1763 195.76 84.4643 195.76C81.3923 195.76 78.6083 195.952 76.1123 196.336L80.1443 163.6H114.512ZM146.738 227.056H146.642C138.962 227.056 133.17 224.048 129.266 218.032C125.362 212.016 123.378 204.304 123.314 194.896C123.314 185.36 125.33 177.584 129.362 171.568C133.394 165.552 139.282 162.544 147.026 162.544C154.834 162.544 160.658 165.552 164.498 171.568C168.338 177.584 170.258 185.232 170.258 194.512C170.258 204.432 168.242 212.336 164.21 218.224C160.242 224.112 154.418 227.056 146.738 227.056ZM146.834 216.016H146.93C152.754 216.016 155.666 208.912 155.666 194.704C155.666 180.624 152.722 173.584 146.834 173.584C144.018 173.584 141.81 175.376 140.21 178.96C138.674 182.544 137.906 187.792 137.906 194.704C137.842 201.744 138.578 207.056 140.114 210.64C141.714 214.224 143.954 216.016 146.834 216.016ZM198.068 227.056H197.972C190.292 227.056 184.5 224.048 180.596 218.032C176.692 212.016 174.708 204.304 174.644 194.896C174.644 185.36 176.66 177.584 180.692 171.568C184.724 165.552 190.612 162.544 198.356 162.544C206.164 162.544 211.988 165.552 215.828 171.568C219.668 177.584 221.588 185.232 221.588 194.512C221.588 204.432 219.572 212.336 215.54 218.224C211.572 224.112 205.748 227.056 198.068 227.056ZM198.164 216.016H198.26C204.084 216.016 206.996 208.912 206.996 194.704C206.996 180.624 204.052 173.584 198.164 173.584C195.348 173.584 193.14 175.376 191.54 178.96C190.004 182.544 189.236 187.792 189.236 194.704C189.172 201.744 189.908 207.056 191.444 210.64C193.044 214.224 195.284 216.016 198.164 216.016ZM228.069 229.96V219.5C228.069 218.54 228.043 217.447 227.989 216.22H230.629L230.769 217.58H230.809C231.556 216.527 232.643 216 234.069 216C235.189 216 236.143 216.453 236.929 217.36C237.729 218.267 238.129 219.473 238.129 220.98C238.129 222.647 237.689 223.94 236.809 224.86C235.929 225.767 234.889 226.22 233.689 226.22C232.516 226.22 231.669 225.847 231.149 225.1H231.109V229.96H228.069ZM231.109 220.46V221.8C231.109 222.027 231.129 222.24 231.169 222.44C231.276 222.853 231.489 223.2 231.809 223.48C232.143 223.747 232.523 223.88 232.949 223.88C233.603 223.88 234.116 223.633 234.489 223.14C234.863 222.633 235.049 221.96 235.049 221.12C235.049 220.307 234.869 219.647 234.509 219.14C234.149 218.633 233.643 218.38 232.989 218.38C232.563 218.38 232.176 218.527 231.829 218.82C231.483 219.1 231.263 219.467 231.169 219.92C231.129 220.08 231.109 220.26 231.109 220.46ZM238.571 216.22H241.951L243.411 221.04C243.624 221.773 243.784 222.38 243.891 222.86H243.951C244.004 222.647 244.084 222.307 244.191 221.84C244.311 221.373 244.377 221.1 244.391 221.02L245.591 216.22H248.851L246.571 222.66C245.904 224.527 245.311 225.933 244.791 226.88C244.271 227.827 243.717 228.56 243.131 229.08C242.251 229.867 241.271 230.313 240.191 230.42L239.551 227.86C239.977 227.767 240.417 227.593 240.871 227.34C241.391 227.06 241.811 226.653 242.131 226.12C242.237 225.947 242.291 225.8 242.291 225.68C242.291 225.533 242.251 225.367 242.171 225.18L238.571 216.22ZM258.76 211.6L258.58 214C258.02 214.16 257.253 214.28 256.28 214.36C254.84 214.507 253.813 214.933 253.2 215.64C252.6 216.28 252.246 217.087 252.14 218.06H252.24C252.546 217.513 252.986 217.073 253.56 216.74C254.133 216.393 254.766 216.22 255.46 216.22C256.78 216.22 257.833 216.667 258.62 217.56C259.406 218.44 259.8 219.62 259.8 221.1C259.8 222.66 259.326 223.907 258.38 224.84C257.446 225.773 256.246 226.24 254.78 226.24C253.126 226.24 251.86 225.647 250.98 224.46C250.1 223.273 249.66 221.713 249.66 219.78C249.66 217.127 250.36 215.14 251.76 213.82C252.706 212.82 254.066 212.22 255.84 212.02C257.32 211.86 258.293 211.72 258.76 211.6ZM256.68 221.2V221.18C256.68 220.42 256.52 219.753 256.2 219.18C255.88 218.607 255.38 218.32 254.7 218.32C254.1 218.32 253.626 218.587 253.28 219.12C252.933 219.627 252.76 220.273 252.76 221.06C252.76 221.82 252.926 222.513 253.26 223.14C253.593 223.753 254.086 224.06 254.74 224.06C255.393 224.06 255.88 223.78 256.2 223.22C256.52 222.66 256.68 221.987 256.68 221.2ZM263.242 226.22H263.222C262.716 226.22 262.296 226.047 261.962 225.7C261.629 225.353 261.462 224.913 261.462 224.38C261.462 223.833 261.629 223.387 261.962 223.04C262.296 222.693 262.729 222.52 263.262 222.52C263.782 222.52 264.202 222.693 264.522 223.04C264.856 223.373 265.029 223.82 265.042 224.38C265.042 224.913 264.876 225.353 264.542 225.7C264.209 226.047 263.776 226.22 263.242 226.22Z" fill="url(#paint0_linear_761_4)"/>
<path d="M8.464 252.528L8.736 253.648C8.07467 253.989 7.12533 254.16 5.888 254.16C4.32 254.16 3.04 253.68 2.048 252.72C1.06667 251.76 0.576 250.421 0.576 248.704C0.576 247.019 1.09333 245.659 2.128 244.624C3.17333 243.579 4.53333 243.056 6.208 243.056C7.264 243.056 8.11733 243.211 8.768 243.52L8.416 244.672C7.81867 244.373 7.09867 244.224 6.256 244.224C4.976 244.224 3.952 244.619 3.184 245.408C2.42667 246.187 2.048 247.269 2.048 248.656C2.048 249.989 2.41067 251.045 3.136 251.824C3.872 252.592 4.88533 252.976 6.176 252.976C7.08267 252.976 7.84533 252.827 8.464 252.528ZM19.5999 243.6V244.784H15.6319L15.2319 247.456C15.5519 247.413 15.8345 247.392 16.0799 247.392C16.9545 247.392 17.7012 247.579 18.3199 247.952C18.7572 248.197 19.1145 248.549 19.3919 249.008C19.6692 249.467 19.8079 250.005 19.8079 250.624C19.8079 251.648 19.4399 252.496 18.7039 253.168C17.9785 253.84 17.0559 254.176 15.9359 254.176C14.8905 254.176 14.0265 253.963 13.3439 253.536L13.6959 252.464C14.3465 252.848 15.0932 253.04 15.9359 253.04C16.6185 253.04 17.1999 252.832 17.6799 252.416C18.1599 252 18.3945 251.451 18.3839 250.768C18.3839 250.075 18.1332 249.52 17.6319 249.104C17.1412 248.688 16.3999 248.48 15.4079 248.48C14.8852 248.48 14.3999 248.517 13.9519 248.592L14.6239 243.6H19.5999ZM25.4816 243.216H26.7936V247.76C26.7936 249.52 26.751 251.04 26.6656 252.32L26.7136 252.336C27.1403 251.429 27.8016 250.24 28.6976 248.768L32.1856 243.216H33.5776V254H32.2656V249.408C32.2656 247.52 32.3083 246.059 32.3936 245.024L32.3456 245.008C31.9723 245.84 31.3056 247.051 30.3456 248.64L26.9696 254H25.4816V243.216ZM35.9969 243.216H37.4049V247.856H39.0049C39.1435 246.363 39.6235 245.189 40.4449 244.336C41.2769 243.472 42.3275 243.04 43.5969 243.04C44.9729 243.04 46.0662 243.547 46.8769 244.56C47.6875 245.563 48.0929 246.875 48.0929 248.496C48.0929 250.299 47.6555 251.696 46.7809 252.688C45.9062 253.68 44.7969 254.176 43.4529 254.176C42.1409 254.176 41.0795 253.712 40.2689 252.784C39.4582 251.856 39.0262 250.608 38.9729 249.04H37.4049V254H35.9969V243.216ZM43.5009 253.056H43.5169C44.4982 253.056 45.2662 252.629 45.8209 251.776C46.3862 250.912 46.6689 249.84 46.6689 248.56C46.6689 247.376 46.3969 246.347 45.8529 245.472C45.3089 244.597 44.5355 244.16 43.5329 244.16C42.5195 244.16 41.7355 244.597 41.1809 245.472C40.6262 246.347 40.3489 247.408 40.3489 248.656C40.3489 249.872 40.6315 250.912 41.1969 251.776C41.7622 252.629 42.5302 253.056 43.5009 253.056ZM49.8719 243.216H51.2799V247.728H56.4959V243.216H57.9039V254H56.4959V248.944H51.2799V254H49.8719V243.216ZM60.8374 254H59.3334C59.4827 253.744 59.632 253.419 59.7814 253.024C59.856 252.811 59.9574 252.496 60.0854 252.08C60.224 251.664 60.3414 251.328 60.4374 251.072C60.5334 250.805 60.6667 250.512 60.8374 250.192C61.008 249.872 61.1947 249.611 61.3974 249.408C61.6534 249.152 61.9574 248.965 62.3094 248.848V248.816C61.616 248.699 61.0454 248.405 60.5974 247.936C60.1494 247.467 59.9254 246.875 59.9254 246.16C59.9254 245.232 60.256 244.507 60.9174 243.984C61.6 243.419 62.6294 243.136 64.0054 243.136C64.9014 243.136 65.76 243.211 66.5814 243.36V254H65.1894V249.328H64.1494C63.4774 249.328 62.9654 249.504 62.6134 249.856C62.3894 250.08 62.192 250.379 62.0214 250.752C61.8614 251.125 61.696 251.589 61.5254 252.144C61.3654 252.699 61.2534 253.056 61.1894 253.216C61.0614 253.515 60.944 253.776 60.8374 254ZM65.1894 248.24V244.352C64.8694 244.267 64.4267 244.224 63.8614 244.224C63.1147 244.224 62.5067 244.384 62.0374 244.704C61.568 245.024 61.3334 245.531 61.3334 246.224C61.3334 246.853 61.5787 247.355 62.0694 247.728C62.5707 248.091 63.216 248.272 64.0054 248.272C64.6134 248.272 65.008 248.261 65.1894 248.24ZM72.3875 243.216H80.2115V254H78.8035V244.384H73.7955V254H72.3875V243.216ZM86.8463 254.176H86.8303C85.3903 254.176 84.2223 253.675 83.3263 252.672C82.4303 251.659 81.9823 250.336 81.9823 248.704C81.9823 247.008 82.4463 245.643 83.3743 244.608C84.3129 243.563 85.5129 243.04 86.9743 243.04C88.4463 243.04 89.6249 243.547 90.5103 244.56C91.3956 245.573 91.8383 246.885 91.8383 248.496C91.8383 250.277 91.3636 251.669 90.4143 252.672C89.4649 253.675 88.2756 254.176 86.8463 254.176ZM86.8943 253.04H86.9103C87.9769 253.04 88.8196 252.613 89.4383 251.76C90.0569 250.907 90.3663 249.84 90.3663 248.56C90.3663 247.387 90.0623 246.363 89.4543 245.488C88.8569 244.613 88.0143 244.176 86.9263 244.176C85.8276 244.176 84.9743 244.613 84.3663 245.488C83.7583 246.363 83.4543 247.424 83.4543 248.672C83.4543 249.867 83.7636 250.896 84.3823 251.76C85.0116 252.613 85.8489 253.04 86.8943 253.04ZM96.5001 253.472L96.8841 252.4C97.5988 252.827 98.3668 253.04 99.1881 253.04C100.009 253.04 100.607 252.837 100.98 252.432C101.364 252.016 101.551 251.547 101.54 251.024C101.529 250.341 101.263 249.824 100.74 249.472C100.228 249.12 99.5988 248.944 98.8521 248.944H98.0681V247.888H98.8521C99.4388 247.888 99.9721 247.739 100.452 247.44C100.932 247.131 101.172 246.693 101.172 246.128C101.172 245.68 101.017 245.307 100.708 245.008C100.409 244.709 99.9561 244.56 99.3481 244.56C98.6015 244.56 97.9081 244.789 97.2681 245.248L96.8841 244.224C97.6308 243.691 98.5428 243.424 99.6201 243.424C100.58 243.424 101.316 243.664 101.828 244.144C102.34 244.624 102.596 245.211 102.596 245.904C102.596 246.459 102.431 246.955 102.1 247.392C101.769 247.819 101.295 248.144 100.676 248.368V248.4C101.348 248.528 101.903 248.827 102.34 249.296C102.777 249.765 102.996 250.352 102.996 251.056C102.996 251.931 102.66 252.672 101.988 253.28C101.316 253.877 100.388 254.176 99.2041 254.176C98.1161 254.176 97.2148 253.941 96.5001 253.472ZM108.079 254.176H108.063C107.029 254.176 106.197 253.707 105.567 252.768C104.938 251.829 104.618 250.517 104.607 248.832C104.607 247.125 104.938 245.797 105.599 244.848C106.271 243.899 107.151 243.424 108.239 243.424C109.327 243.424 110.17 243.888 110.767 244.816C111.375 245.744 111.679 247.035 111.679 248.688C111.679 250.448 111.365 251.803 110.735 252.752C110.106 253.701 109.221 254.176 108.079 254.176ZM108.127 253.088H108.143C108.837 253.088 109.359 252.709 109.711 251.952C110.074 251.184 110.255 250.117 110.255 248.752C110.255 247.419 110.079 246.379 109.727 245.632C109.386 244.885 108.858 244.512 108.143 244.512C107.503 244.512 106.991 244.896 106.607 245.664C106.223 246.421 106.031 247.451 106.031 248.752C106.021 250.096 106.202 251.157 106.575 251.936C106.959 252.704 107.477 253.088 108.127 253.088ZM116.841 243.216H118.153V247.76C118.153 249.52 118.11 251.04 118.025 252.32L118.073 252.336C118.5 251.429 119.161 250.24 120.057 248.768L123.545 243.216H124.937V254H123.625V249.408C123.625 247.52 123.668 246.059 123.753 245.024L123.705 245.008C123.332 245.84 122.665 247.051 121.705 248.64L118.329 254H116.841V243.216ZM127.356 243.216H128.764V247.856H130.364C130.503 246.363 130.983 245.189 131.804 244.336C132.636 243.472 133.687 243.04 134.956 243.04C136.332 243.04 137.426 243.547 138.236 244.56C139.047 245.563 139.452 246.875 139.452 248.496C139.452 250.299 139.015 251.696 138.14 252.688C137.266 253.68 136.156 254.176 134.812 254.176C133.5 254.176 132.439 253.712 131.628 252.784C130.818 251.856 130.386 250.608 130.332 249.04H128.764V254H127.356V243.216ZM134.86 253.056H134.876C135.858 253.056 136.626 252.629 137.18 251.776C137.746 250.912 138.028 249.84 138.028 248.56C138.028 247.376 137.756 246.347 137.212 245.472C136.668 244.597 135.895 244.16 134.892 244.16C133.879 244.16 133.095 244.597 132.54 245.472C131.986 246.347 131.708 247.408 131.708 248.656C131.708 249.872 131.991 250.912 132.556 251.776C133.122 252.629 133.89 253.056 134.86 253.056ZM141.937 243.216H148.273V254H146.865V244.384H143.313V247.648C143.313 248.363 143.297 248.971 143.265 249.472C143.233 249.963 143.169 250.507 143.073 251.104C142.977 251.691 142.811 252.197 142.577 252.624C142.353 253.04 142.059 253.371 141.697 253.616C141.163 253.957 140.609 254.128 140.033 254.128L139.857 253.008C140.294 252.944 140.673 252.752 140.993 252.432C141.622 251.824 141.937 250.267 141.937 247.76V243.216ZM151.197 254H149.693C149.842 253.744 149.991 253.419 150.141 253.024C150.215 252.811 150.317 252.496 150.445 252.08C150.583 251.664 150.701 251.328 150.797 251.072C150.893 250.805 151.026 250.512 151.197 250.192C151.367 249.872 151.554 249.611 151.757 249.408C152.013 249.152 152.317 248.965 152.669 248.848V248.816C151.975 248.699 151.405 248.405 150.957 247.936C150.509 247.467 150.285 246.875 150.285 246.16C150.285 245.232 150.615 244.507 151.277 243.984C151.959 243.419 152.989 243.136 154.365 243.136C155.261 243.136 156.119 243.211 156.941 243.36V254H155.549V249.328H154.509C153.837 249.328 153.325 249.504 152.973 249.856C152.749 250.08 152.551 250.379 152.381 250.752C152.221 251.125 152.055 251.589 151.885 252.144C151.725 252.699 151.613 253.056 151.549 253.216C151.421 253.515 151.303 253.776 151.197 254ZM155.549 248.24V244.352C155.229 244.267 154.786 244.224 154.221 244.224C153.474 244.224 152.866 244.384 152.397 244.704C151.927 245.024 151.693 245.531 151.693 246.224C151.693 246.853 151.938 247.355 152.429 247.728C152.93 248.091 153.575 248.272 154.365 248.272C154.973 248.272 155.367 248.261 155.549 248.24ZM168.907 254H162.267V253.136L163.371 252.064C164.822 250.688 165.83 249.621 166.395 248.864C166.96 248.107 167.243 247.36 167.243 246.624C167.243 246.027 167.083 245.541 166.763 245.168C166.443 244.784 165.92 244.592 165.195 244.592C164.427 244.592 163.691 244.885 162.987 245.472L162.539 244.48C163.371 243.776 164.352 243.424 165.483 243.424C166.518 243.424 167.302 243.723 167.835 244.32C168.379 244.917 168.651 245.627 168.651 246.448C168.651 247.333 168.368 248.187 167.803 249.008C167.238 249.819 166.326 250.827 165.067 252.032L164.251 252.8V252.832H168.907V254ZM173.798 254.176H173.782C172.747 254.176 171.915 253.707 171.286 252.768C170.657 251.829 170.337 250.517 170.326 248.832C170.326 247.125 170.657 245.797 171.318 244.848C171.99 243.899 172.87 243.424 173.958 243.424C175.046 243.424 175.889 243.888 176.486 244.816C177.094 245.744 177.398 247.035 177.398 248.688C177.398 250.448 177.083 251.803 176.454 252.752C175.825 253.701 174.939 254.176 173.798 254.176ZM173.846 253.088H173.862C174.555 253.088 175.078 252.709 175.43 251.952C175.793 251.184 175.974 250.117 175.974 248.752C175.974 247.419 175.798 246.379 175.446 245.632C175.105 244.885 174.577 244.512 173.862 244.512C173.222 244.512 172.71 244.896 172.326 245.664C171.942 246.421 171.75 247.451 171.75 248.752C171.739 250.096 171.921 251.157 172.294 251.936C172.678 252.704 173.195 253.088 173.846 253.088ZM185.313 254H178.673V253.136L179.777 252.064C181.228 250.688 182.236 249.621 182.801 248.864C183.366 248.107 183.649 247.36 183.649 246.624C183.649 246.027 183.489 245.541 183.169 245.168C182.849 244.784 182.326 244.592 181.601 244.592C180.833 244.592 180.097 244.885 179.393 245.472L178.945 244.48C179.777 243.776 180.758 243.424 181.889 243.424C182.924 243.424 183.708 243.723 184.241 244.32C184.785 244.917 185.057 245.627 185.057 246.448C185.057 247.333 184.774 248.187 184.209 249.008C183.644 249.819 182.732 250.827 181.473 252.032L180.657 252.8V252.832H185.313V254ZM189.932 254V244.912H189.9L188.092 245.888L187.82 244.816L190.092 243.6H191.292V254H189.932ZM198.95 243.216H204.694V244.384H200.358V254H198.95V243.216ZM209.549 254.176H209.533C208.093 254.176 206.925 253.675 206.029 252.672C205.133 251.659 204.685 250.336 204.685 248.704C204.685 247.008 205.149 245.643 206.077 244.608C207.016 243.563 208.216 243.04 209.677 243.04C211.149 243.04 212.328 243.547 213.213 244.56C214.099 245.573 214.541 246.885 214.541 248.496C214.541 250.277 214.067 251.669 213.117 252.672C212.168 253.675 210.979 254.176 209.549 254.176ZM209.597 253.04H209.613C210.68 253.04 211.523 252.613 212.141 251.76C212.76 250.907 213.069 249.84 213.069 248.56C213.069 247.387 212.765 246.363 212.157 245.488C211.56 244.613 210.717 244.176 209.629 244.176C208.531 244.176 207.677 244.613 207.069 245.488C206.461 246.363 206.157 247.424 206.157 248.672C206.157 249.867 206.467 250.896 207.085 251.76C207.715 252.613 208.552 253.04 209.597 253.04ZM217.357 243.216H223.389V252.864L224.333 252.896L224.237 256.592H223.149L223.053 254H216.253L216.157 256.592H215.069L214.973 252.896L215.789 252.864C216.301 251.925 216.653 251.136 216.845 250.496C217.186 249.333 217.357 247.824 217.357 245.968V243.216ZM218.653 244.384V246.4C218.653 248.181 218.472 249.648 218.109 250.8C217.938 251.387 217.645 252.069 217.229 252.848H221.981V244.384H218.653ZM231.659 250.608H227.835L226.715 254H225.275L228.939 243.216H230.619L234.299 254H232.811L231.659 250.608ZM228.123 249.52H231.371L230.299 246.416C230.16 245.989 229.979 245.333 229.755 244.448H229.707C229.547 245.152 229.371 245.803 229.179 246.4L228.123 249.52Z" fill="#58595B"/>
<path d="M235.288 122.136H235.312C236.752 122.136 237.872 122.512 238.672 123.264C239.472 124.016 239.872 124.92 239.872 125.976C239.872 127.608 239.008 128.824 237.28 129.624V129.696C239.376 130.528 240.424 131.872 240.424 133.728C240.424 135.072 239.92 136.168 238.912 137.016C237.904 137.848 236.64 138.264 235.12 138.264C233.536 138.264 232.264 137.864 231.304 137.064C230.36 136.248 229.888 135.248 229.888 134.064C229.888 132.144 230.912 130.744 232.96 129.864V129.792C232.128 129.408 231.504 128.904 231.088 128.28C230.672 127.656 230.464 126.992 230.464 126.288C230.464 125.072 230.92 124.08 231.832 123.312C232.744 122.528 233.896 122.136 235.288 122.136ZM235.144 136.728H235.168C236.112 136.728 236.864 136.472 237.424 135.96C238 135.432 238.288 134.76 238.288 133.944C238.288 133.048 237.992 132.336 237.4 131.808C236.824 131.28 235.976 130.856 234.856 130.536C233.96 130.792 233.264 131.208 232.768 131.784C232.288 132.36 232.048 133.024 232.048 133.776C232.016 134.592 232.28 135.288 232.84 135.864C233.416 136.44 234.184 136.728 235.144 136.728ZM235.216 123.648H235.192C234.344 123.648 233.68 123.888 233.2 124.368C232.72 124.848 232.48 125.44 232.48 126.144C232.464 126.88 232.712 127.48 233.224 127.944C233.752 128.408 234.496 128.768 235.456 129.024C236.176 128.784 236.752 128.424 237.184 127.944C237.616 127.448 237.832 126.864 237.832 126.192C237.832 125.488 237.608 124.888 237.16 124.392C236.728 123.896 236.08 123.648 235.216 123.648ZM256.375 122.16V123.888C255.959 123.872 255.431 123.912 254.791 124.008C253.207 124.264 251.951 124.904 251.023 125.928C250.111 126.936 249.559 128.136 249.367 129.528H249.415C250.311 128.312 251.575 127.704 253.207 127.704C254.599 127.704 255.727 128.168 256.591 129.096C257.471 130.024 257.911 131.24 257.911 132.744C257.911 134.248 257.431 135.544 256.471 136.632C255.527 137.72 254.271 138.264 252.703 138.264C251.039 138.264 249.703 137.664 248.695 136.464C247.703 135.248 247.207 133.632 247.207 131.616C247.207 128.656 248.087 126.312 249.847 124.584C251.159 123.288 252.823 122.52 254.839 122.28C255.367 122.2 255.879 122.16 256.375 122.16ZM252.727 136.632H252.751C253.647 136.632 254.375 136.288 254.935 135.6C255.495 134.912 255.775 134.008 255.775 132.888C255.775 131.784 255.479 130.912 254.887 130.272C254.311 129.632 253.535 129.312 252.559 129.312C251.919 129.312 251.319 129.488 250.759 129.84C250.215 130.192 249.799 130.656 249.511 131.232C249.367 131.52 249.295 131.824 249.295 132.144C249.311 133.472 249.615 134.552 250.207 135.384C250.815 136.216 251.655 136.632 252.727 136.632ZM264.767 138.264H264.743C263.191 138.264 261.943 137.56 260.999 136.152C260.055 134.744 259.575 132.776 259.559 130.248C259.559 127.688 260.055 125.696 261.047 124.272C262.055 122.848 263.375 122.136 265.007 122.136C266.639 122.136 267.903 122.832 268.799 124.224C269.711 125.616 270.167 127.552 270.167 130.032C270.167 132.672 269.695 134.704 268.751 136.128C267.807 137.552 266.479 138.264 264.767 138.264ZM264.839 136.632H264.863C265.903 136.632 266.687 136.064 267.215 134.928C267.759 133.776 268.031 132.176 268.031 130.128C268.031 128.128 267.767 126.568 267.239 125.448C266.727 124.328 265.935 123.768 264.863 123.768C263.903 123.768 263.135 124.344 262.559 125.496C261.983 126.632 261.695 128.176 261.695 130.128C261.679 132.144 261.951 133.736 262.511 134.904C263.087 136.056 263.863 136.632 264.839 136.632ZM277.072 138.264H277.048C275.496 138.264 274.248 137.56 273.304 136.152C272.36 134.744 271.88 132.776 271.864 130.248C271.864 127.688 272.36 125.696 273.352 124.272C274.36 122.848 275.68 122.136 277.312 122.136C278.944 122.136 280.208 122.832 281.104 124.224C282.016 125.616 282.472 127.552 282.472 130.032C282.472 132.672 282 134.704 281.056 136.128C280.112 137.552 278.784 138.264 277.072 138.264ZM277.144 136.632H277.168C278.208 136.632 278.992 136.064 279.52 134.928C280.064 133.776 280.336 132.176 280.336 130.128C280.336 128.128 280.072 126.568 279.544 125.448C279.032 124.328 278.24 123.768 277.168 123.768C276.208 123.768 275.44 124.344 274.864 125.496C274.288 126.632 274 128.176 274 130.128C273.984 132.144 274.256 133.736 274.816 134.904C275.392 136.056 276.168 136.632 277.144 136.632ZM290.143 142.752V130.176C290.143 128.624 290.111 127.36 290.047 126.384H291.943L292.063 128.376H292.111C292.991 126.872 294.359 126.12 296.215 126.12C297.639 126.12 298.815 126.672 299.743 127.776C300.687 128.864 301.159 130.28 301.159 132.024C301.159 134.008 300.639 135.544 299.599 136.632C298.575 137.72 297.335 138.264 295.879 138.264C294.231 138.264 293.039 137.656 292.303 136.44H292.255V142.752H290.143ZM292.255 131.256V133.272C292.255 133.608 292.287 133.896 292.351 134.136C292.527 134.872 292.903 135.472 293.479 135.936C294.071 136.384 294.743 136.608 295.495 136.608C296.599 136.608 297.463 136.2 298.087 135.384C298.711 134.568 299.023 133.48 299.023 132.12C299.023 130.904 298.719 129.88 298.111 129.048C297.503 128.216 296.663 127.8 295.591 127.8C294.855 127.8 294.183 128.04 293.575 128.52C292.983 129 292.583 129.632 292.375 130.416C292.295 130.864 292.255 131.144 292.255 131.256ZM302.036 126.384H304.34L306.86 133.248C307.148 134 307.404 134.792 307.628 135.624H307.676C307.692 135.576 307.788 135.248 307.964 134.64C308.156 134.016 308.308 133.536 308.42 133.2L310.724 126.384H312.956L309.788 134.664C309.004 136.712 308.316 138.28 307.724 139.368C307.148 140.456 306.508 141.312 305.804 141.936C304.924 142.672 304.06 143.12 303.212 143.28L302.684 141.528C303.356 141.32 303.972 140.976 304.532 140.496C305.252 139.936 305.844 139.152 306.308 138.144C306.42 137.888 306.476 137.72 306.476 137.64C306.476 137.512 306.42 137.328 306.308 137.088L302.036 126.384ZM323.937 120.696L323.841 122.448C323.393 122.624 322.585 122.8 321.417 122.976C319.449 123.28 318.065 124.008 317.265 125.16C316.577 126.152 316.153 127.432 315.993 129H316.065C316.433 128.168 316.985 127.528 317.721 127.08C318.473 126.616 319.273 126.384 320.121 126.384C321.593 126.384 322.785 126.888 323.697 127.896C324.609 128.904 325.065 130.312 325.065 132.12C325.065 134.024 324.593 135.528 323.649 136.632C322.705 137.72 321.385 138.264 319.689 138.264C318.713 138.264 317.857 138.048 317.121 137.616C316.401 137.168 315.841 136.568 315.441 135.816C315.041 135.048 314.745 134.224 314.553 133.344C314.361 132.464 314.265 131.512 314.265 130.488C314.265 127.784 314.857 125.64 316.041 124.056C316.585 123.272 317.257 122.672 318.057 122.256C318.873 121.824 319.873 121.512 321.057 121.32C322.465 121.08 323.425 120.872 323.937 120.696ZM322.929 132.288V132.264C322.929 131.56 322.841 130.904 322.665 130.296C322.489 129.688 322.145 129.144 321.633 128.664C321.121 128.184 320.473 127.944 319.689 127.944C318.505 127.944 317.625 128.472 317.049 129.528C316.665 130.216 316.473 131.032 316.473 131.976C316.473 132.68 316.577 133.376 316.785 134.064C316.993 134.752 317.353 135.36 317.865 135.888C318.393 136.416 319.017 136.68 319.737 136.68C320.825 136.68 321.625 136.248 322.137 135.384C322.665 134.52 322.929 133.488 322.929 132.288Z" fill="#58595B"/>
<path d="M229 131.04H325.977V132.24H229V131.04Z" fill="#58595B"/>
</g>
<defs>
<linearGradient id="paint0_linear_761_4" x1="133" y1="154" x2="133" y2="250" gradientUnits="userSpaceOnUse">
<stop stop-color="#006738"/>
<stop offset="1" stop-color="#009344"/>
</linearGradient>
<clipPath id="clip0_761_4">
<rect width="402" height="258" fill="white"/>
</clipPath>
</defs>
</svg>
