<svg width="245" height="84" viewBox="0 0 245 84" fill="none" xmlns="http://www.w3.org/2000/svg">
<path d="M44.4609 55.0234V54.1953H47.5391V50.8828H48.4453V54.1953H51.5234V55.0234H48.4453V58.4297H47.5391V55.0234H44.4609ZM52.4766 50.5156V49.3281H59.7578V50.2422L55.3906 60H53.9219L58.2266 50.5156H52.4766ZM60.9219 56.1094C60.9219 54.8281 61.1172 53.5807 61.5078 52.3672C61.8984 51.1484 62.4557 50.0391 63.1797 49.0391L63.8984 49.5859C63.3359 50.7005 62.9167 51.7526 62.6406 52.7422C62.3698 53.7318 62.2344 54.8542 62.2344 56.1094C62.2344 57.3594 62.3698 58.4818 62.6406 59.4766C62.9167 60.4714 63.3359 61.5208 63.8984 62.625L63.1797 63.1875C62.4557 62.1979 61.8984 61.0938 61.5078 59.875C61.1172 58.651 60.9219 57.3958 60.9219 56.1094ZM64.9688 52.6406C64.9688 52.1771 65.0547 51.737 65.2266 51.3203C65.4036 50.8984 65.6484 50.526 65.9609 50.2031C66.2734 49.8802 66.6667 49.625 67.1406 49.4375C67.6198 49.2448 68.1406 49.1484 68.7031 49.1484C69.2865 49.1484 69.8125 49.2474 70.2812 49.4453C70.75 49.6432 71.1406 49.9115 71.4531 50.25C71.7656 50.5885 72.026 50.9948 72.2344 51.4688C72.4427 51.9427 72.5938 52.4453 72.6875 52.9766C72.7812 53.5078 72.8281 54.0729 72.8281 54.6719C72.8281 55.2604 72.7734 55.8229 72.6641 56.3594C72.5599 56.8906 72.3906 57.3906 72.1562 57.8594C71.9271 58.3229 71.6458 58.7266 71.3125 59.0703C70.9792 59.4141 70.5703 59.6849 70.0859 59.8828C69.6068 60.0807 69.0755 60.1797 68.4922 60.1797C67.2682 60.1797 66.2812 59.7526 65.5312 58.8984L66.2031 57.9062C66.5052 58.2604 66.8333 58.5312 67.1875 58.7188C67.5417 58.901 67.9766 58.9922 68.4922 58.9922C68.9089 58.9922 69.2865 58.9115 69.625 58.75C69.9688 58.5885 70.2552 58.3724 70.4844 58.1016C70.7135 57.8307 70.9062 57.5156 71.0625 57.1562C71.2188 56.7917 71.3307 56.4141 71.3984 56.0234C71.4661 55.6328 71.5 55.2292 71.5 54.8125C71.5 54.6198 71.4948 54.4766 71.4844 54.3828C71.2188 54.8047 70.8073 55.1875 70.25 55.5312C69.6927 55.875 69.1016 56.0469 68.4766 56.0469C67.8203 56.0469 67.2318 55.9245 66.7109 55.6797C66.1953 55.4349 65.776 55.0521 65.4531 54.5312C65.1302 54.0052 64.9688 53.375 64.9688 52.6406ZM66.3125 52.5938C66.3125 53.3438 66.5417 53.9167 67 54.3125C67.4635 54.7031 68.0573 54.8984 68.7812 54.8984C69.3021 54.8984 69.8047 54.7526 70.2891 54.4609C70.7734 54.1693 71.1562 53.7865 71.4375 53.3125C71.4167 53.0312 71.3698 52.7578 71.2969 52.4922C71.2292 52.2266 71.125 51.9609 70.9844 51.6953C70.8438 51.4297 70.6745 51.1979 70.4766 51C70.2839 50.8021 70.0391 50.6432 69.7422 50.5234C69.4505 50.3984 69.125 50.3359 68.7656 50.3359C68.375 50.3359 68.0182 50.4062 67.6953 50.5469C67.3776 50.6875 67.1198 50.8698 66.9219 51.0938C66.724 51.3125 66.5729 51.5521 66.4688 51.8125C66.3646 52.0729 66.3125 52.3333 66.3125 52.5938ZM74.4922 50.8516C74.8932 50.3203 75.4219 49.9089 76.0781 49.6172C76.7344 49.3203 77.4427 49.1719 78.2031 49.1719C78.6562 49.1719 79.0911 49.237 79.5078 49.3672C79.9297 49.4974 80.3099 49.6875 80.6484 49.9375C80.9922 50.1875 81.2656 50.5182 81.4688 50.9297C81.6771 51.3359 81.7812 51.7943 81.7812 52.3047C81.7812 52.7318 81.6927 53.1667 81.5156 53.6094C81.3385 54.0469 81.1094 54.4609 80.8281 54.8516C80.5469 55.2422 80.1693 55.6745 79.6953 56.1484C79.2214 56.6172 78.7552 57.0469 78.2969 57.4375C77.8385 57.8229 77.2734 58.2812 76.6016 58.8125H81.8359V60H74.5078V58.9453C75.0443 58.5234 75.4974 58.1641 75.8672 57.8672C76.2422 57.5651 76.6354 57.2422 77.0469 56.8984C77.4583 56.5547 77.7995 56.2552 78.0703 56C78.3464 55.7448 78.6224 55.474 78.8984 55.1875C79.1797 54.901 79.4036 54.6432 79.5703 54.4141C79.737 54.1849 79.8906 53.9479 80.0312 53.7031C80.1719 53.4583 80.2708 53.2214 80.3281 52.9922C80.3906 52.763 80.4219 52.5339 80.4219 52.3047C80.4219 51.8724 80.3099 51.5052 80.0859 51.2031C79.8672 50.8958 79.5938 50.6771 79.2656 50.5469C78.9427 50.4167 78.5885 50.3516 78.2031 50.3516C77.5833 50.3516 77.026 50.4714 76.5312 50.7109C76.0417 50.9505 75.6328 51.2786 75.3047 51.6953L74.4922 50.8516ZM83.8281 52.6406C83.8281 52.1771 83.9141 51.737 84.0859 51.3203C84.263 50.8984 84.5078 50.526 84.8203 50.2031C85.1328 49.8802 85.526 49.625 86 49.4375C86.4792 49.2448 87 49.1484 87.5625 49.1484C88.1458 49.1484 88.6719 49.2474 89.1406 49.4453C89.6094 49.6432 90 49.9115 90.3125 50.25C90.625 50.5885 90.8854 50.9948 91.0938 51.4688C91.3021 51.9427 91.4531 52.4453 91.5469 52.9766C91.6406 53.5078 91.6875 54.0729 91.6875 54.6719C91.6875 55.2604 91.6328 55.8229 91.5234 56.3594C91.4193 56.8906 91.25 57.3906 91.0156 57.8594C90.7865 58.3229 90.5052 58.7266 90.1719 59.0703C89.8385 59.4141 89.4297 59.6849 88.9453 59.8828C88.4661 60.0807 87.9349 60.1797 87.3516 60.1797C86.1276 60.1797 85.1406 59.7526 84.3906 58.8984L85.0625 57.9062C85.3646 58.2604 85.6927 58.5312 86.0469 58.7188C86.401 58.901 86.8359 58.9922 87.3516 58.9922C87.7682 58.9922 88.1458 58.9115 88.4844 58.75C88.8281 58.5885 89.1146 58.3724 89.3438 58.1016C89.5729 57.8307 89.7656 57.5156 89.9219 57.1562C90.0781 56.7917 90.1901 56.4141 90.2578 56.0234C90.3255 55.6328 90.3594 55.2292 90.3594 54.8125C90.3594 54.6198 90.3542 54.4766 90.3438 54.3828C90.0781 54.8047 89.6667 55.1875 89.1094 55.5312C88.5521 55.875 87.9609 56.0469 87.3359 56.0469C86.6797 56.0469 86.0911 55.9245 85.5703 55.6797C85.0547 55.4349 84.6354 55.0521 84.3125 54.5312C83.9896 54.0052 83.8281 53.375 83.8281 52.6406ZM85.1719 52.5938C85.1719 53.3438 85.401 53.9167 85.8594 54.3125C86.3229 54.7031 86.9167 54.8984 87.6406 54.8984C88.1615 54.8984 88.6641 54.7526 89.1484 54.4609C89.6328 54.1693 90.0156 53.7865 90.2969 53.3125C90.276 53.0312 90.2292 52.7578 90.1562 52.4922C90.0885 52.2266 89.9844 51.9609 89.8438 51.6953C89.7031 51.4297 89.5339 51.1979 89.3359 51C89.1432 50.8021 88.8984 50.6432 88.6016 50.5234C88.3099 50.3984 87.9844 50.3359 87.625 50.3359C87.2344 50.3359 86.8776 50.4062 86.5547 50.5469C86.237 50.6875 85.9792 50.8698 85.7812 51.0938C85.5833 51.3125 85.4323 51.5521 85.3281 51.8125C85.224 52.0729 85.1719 52.3333 85.1719 52.5938ZM92.7734 62.625C93.3411 61.526 93.763 60.4792 94.0391 59.4844C94.3151 58.4844 94.4531 57.3594 94.4531 56.1094C94.4531 54.8542 94.3151 53.7318 94.0391 52.7422C93.763 51.7474 93.3411 50.6953 92.7734 49.5859L93.4922 49.0391C94.2214 50.0339 94.7812 51.1406 95.1719 52.3594C95.5677 53.5781 95.7656 54.8281 95.7656 56.1094C95.7656 57.3958 95.5677 58.651 95.1719 59.875C94.7812 61.099 94.2214 62.2031 93.4922 63.1875L92.7734 62.625Z" fill="#A7A8A0"/>
<path d="M109.704 60.3662C108.229 60.3662 106.926 60.0977 105.793 59.5605C104.67 59.0137 103.771 58.2617 103.098 57.3047C102.424 56.3477 101.916 55.2588 101.574 54.0381C101.242 52.8174 101.076 51.4844 101.076 50.0391C101.076 48.0078 101.438 46.2207 102.16 44.6777C102.893 43.125 103.967 41.9092 105.383 41.0303C106.799 40.1416 108.474 39.6973 110.407 39.6973C112.731 39.6973 114.699 40.3857 116.311 41.7627L114.392 45.0293C113.825 44.4922 113.234 44.1016 112.619 43.8574C112.004 43.6035 111.267 43.4766 110.407 43.4766C108.952 43.4766 107.751 44.0186 106.804 45.1025C105.866 46.1865 105.397 47.5342 105.397 49.1455C105.397 49.3213 105.407 49.458 105.427 49.5557C105.915 48.8428 106.628 48.2373 107.565 47.7393C108.513 47.2314 109.509 46.9775 110.554 46.9775C111.784 46.9775 112.907 47.2217 113.923 47.71C114.938 48.1885 115.764 48.9307 116.398 49.9365C117.043 50.9424 117.365 52.1289 117.365 53.4961C117.365 55.4688 116.652 57.1094 115.227 58.418C113.801 59.7168 111.96 60.3662 109.704 60.3662ZM109.47 56.5869C110.563 56.5869 111.433 56.2891 112.077 55.6934C112.722 55.0879 113.044 54.4043 113.044 53.6426C113.044 52.6562 112.683 51.9092 111.96 51.4014C111.247 50.8936 110.368 50.6396 109.323 50.6396C108.571 50.6396 107.854 50.8057 107.17 51.1377C106.486 51.4697 105.905 51.9336 105.427 52.5293C105.476 53.0371 105.583 53.5205 105.749 53.9795C105.915 54.4385 106.149 54.8682 106.452 55.2686C106.765 55.6689 107.18 55.9912 107.697 56.2354C108.215 56.4697 108.806 56.5869 109.47 56.5869ZM127.956 60.3662C126.481 60.3662 125.178 60.0977 124.045 59.5605C122.922 59.0137 122.023 58.2617 121.35 57.3047C120.676 56.3477 120.168 55.2588 119.826 54.0381C119.494 52.8174 119.328 51.4844 119.328 50.0391C119.328 48.0078 119.689 46.2207 120.412 44.6777C121.145 43.125 122.219 41.9092 123.635 41.0303C125.051 40.1416 126.726 39.6973 128.659 39.6973C130.983 39.6973 132.951 40.3857 134.562 41.7627L132.644 45.0293C132.077 44.4922 131.486 44.1016 130.871 43.8574C130.256 43.6035 129.519 43.4766 128.659 43.4766C127.204 43.4766 126.003 44.0186 125.056 45.1025C124.118 46.1865 123.649 47.5342 123.649 49.1455C123.649 49.3213 123.659 49.458 123.679 49.5557C124.167 48.8428 124.88 48.2373 125.817 47.7393C126.765 47.2314 127.761 46.9775 128.806 46.9775C130.036 46.9775 131.159 47.2217 132.175 47.71C133.19 48.1885 134.016 48.9307 134.65 49.9365C135.295 50.9424 135.617 52.1289 135.617 53.4961C135.617 55.4688 134.904 57.1094 133.479 58.418C132.053 59.7168 130.212 60.3662 127.956 60.3662ZM127.722 56.5869C128.815 56.5869 129.685 56.2891 130.329 55.6934C130.974 55.0879 131.296 54.4043 131.296 53.6426C131.296 52.6562 130.935 51.9092 130.212 51.4014C129.499 50.8936 128.62 50.6396 127.575 50.6396C126.823 50.6396 126.105 50.8057 125.422 51.1377C124.738 51.4697 124.157 51.9336 123.679 52.5293C123.728 53.0371 123.835 53.5205 124.001 53.9795C124.167 54.4385 124.401 54.8682 124.704 55.2686C125.017 55.6689 125.432 55.9912 125.949 56.2354C126.467 56.4697 127.058 56.5869 127.722 56.5869ZM145.651 60.3662C144.802 60.3662 143.986 60.293 143.205 60.1465C142.424 60.0098 141.691 59.79 141.008 59.4873C140.324 59.1846 139.729 58.8184 139.221 58.3887C138.723 57.959 138.327 57.4414 138.034 56.8359C137.751 56.2207 137.609 55.5469 137.609 54.8145C137.609 53.6426 138.01 52.6025 138.811 51.6943C139.611 50.7861 140.642 50.1123 141.901 49.6729C139.255 48.7549 137.932 47.1875 137.932 44.9707C137.932 44.0723 138.156 43.2764 138.605 42.583C139.055 41.8799 139.655 41.3281 140.407 40.9277C141.159 40.5176 141.979 40.21 142.868 40.0049C143.757 39.7998 144.685 39.6973 145.651 39.6973C146.608 39.6973 147.531 39.7998 148.42 40.0049C149.309 40.21 150.129 40.5176 150.881 40.9277C151.633 41.3281 152.233 41.8799 152.683 42.583C153.132 43.2764 153.356 44.0723 153.356 44.9707C153.356 47.1777 152.023 48.7451 149.357 49.6729C150.617 50.1123 151.652 50.7861 152.463 51.6943C153.273 52.6025 153.679 53.6426 153.679 54.8145C153.679 56.0059 153.293 57.0312 152.521 57.8906C151.76 58.75 150.783 59.3799 149.592 59.7803C148.41 60.1709 147.097 60.3662 145.651 60.3662ZM145.651 48.0029C145.993 47.9541 146.34 47.876 146.691 47.7686C147.053 47.6514 147.414 47.5 147.775 47.3145C148.137 47.1289 148.43 46.8896 148.654 46.5967C148.889 46.3037 149.006 45.9814 149.006 45.6299C149.006 44.9268 148.693 44.3701 148.068 43.96C147.453 43.5498 146.647 43.3447 145.651 43.3447C144.646 43.3447 143.825 43.5498 143.19 43.96C142.565 44.3701 142.253 44.9268 142.253 45.6299C142.253 45.9814 142.37 46.3037 142.604 46.5967C142.839 46.8896 143.137 47.1289 143.498 47.3145C143.869 47.5 144.23 47.6514 144.582 47.7686C144.943 47.876 145.3 47.9541 145.651 48.0029ZM145.651 56.7041C146.696 56.7041 147.575 56.4795 148.288 56.0303C149.001 55.5713 149.357 54.9854 149.357 54.2725C149.357 53.8721 149.226 53.5059 148.962 53.1738C148.698 52.8418 148.361 52.5732 147.951 52.3682C147.541 52.1631 147.141 51.9971 146.75 51.8701C146.369 51.7432 146.003 51.6553 145.651 51.6064C145.29 51.6553 144.914 51.7432 144.523 51.8701C144.133 51.9971 143.732 52.1631 143.322 52.3682C142.922 52.5732 142.59 52.8418 142.326 53.1738C142.062 53.5059 141.931 53.8721 141.931 54.2725C141.931 54.9951 142.282 55.5811 142.985 56.0303C143.698 56.4795 144.587 56.7041 145.651 56.7041ZM162.849 54.3604H155.642V51.123H162.849V54.3604ZM174.099 60H169.836V45.4834L166.496 48.8672L164.079 46.3184L170.378 39.9902H174.099V60ZM185.261 60.3662C181.96 60.3662 179.387 59.3652 177.541 57.3633L179.914 54.3896C181.32 55.8545 183.093 56.5869 185.231 56.5869C186.384 56.5869 187.292 56.3037 187.956 55.7373C188.62 55.1709 188.952 54.4629 188.952 53.6133C188.952 52.7148 188.63 51.9971 187.985 51.46C187.351 50.9131 186.472 50.6396 185.349 50.6396C183.688 50.6396 182.287 51.1816 181.145 52.2656L178.171 51.4746V39.9902H191.911V43.7402H182.434V48.6328C182.941 48.125 183.581 47.7197 184.353 47.417C185.124 47.1045 185.954 46.9482 186.843 46.9482C187.985 46.9482 189.04 47.2021 190.007 47.71C190.974 48.2178 191.76 48.9746 192.365 49.9805C192.971 50.9766 193.273 52.124 193.273 53.4229C193.273 55.542 192.546 57.2314 191.091 58.4912C189.636 59.7412 187.692 60.3662 185.261 60.3662ZM202.429 54.3604H195.222V51.123H202.429V54.3604ZM211.218 60.3369C208.845 60.3369 206.882 59.6436 205.329 58.2568L207.219 54.9902C207.785 55.5176 208.376 55.9082 208.991 56.1621C209.616 56.416 210.358 56.543 211.218 56.543C212.272 56.543 213.186 56.2695 213.957 55.7227C214.738 55.1758 215.31 54.4824 215.671 53.6426C216.042 52.8027 216.228 51.8896 216.228 50.9033V50.4639C215.71 51.1865 214.978 51.7969 214.03 52.2949C213.093 52.793 212.102 53.042 211.057 53.042C209.826 53.042 208.698 52.8027 207.673 52.3242C206.657 51.8359 205.827 51.0889 205.183 50.083C204.538 49.0771 204.216 47.8906 204.216 46.5234C204.216 44.5508 204.934 42.915 206.369 41.6162C207.805 40.3076 209.65 39.6533 211.906 39.6533C213.088 39.6533 214.157 39.834 215.114 40.1953C216.081 40.5469 216.896 41.0352 217.561 41.6602C218.225 42.2852 218.781 43.0371 219.23 43.916C219.68 44.7949 220.007 45.7422 220.212 46.7578C220.417 47.7734 220.52 48.8574 220.52 50.0098C220.52 52.0312 220.158 53.8184 219.436 55.3711C218.713 56.9141 217.644 58.1299 216.228 59.0186C214.812 59.8975 213.142 60.3369 211.218 60.3369ZM212.258 49.3799C213.01 49.3799 213.732 49.2188 214.426 48.8965C215.129 48.5645 215.72 48.1055 216.198 47.5195C216.149 47.0117 216.042 46.5283 215.876 46.0693C215.71 45.6104 215.471 45.1807 215.158 44.7803C214.846 44.3701 214.426 44.0479 213.898 43.8135C213.381 43.5693 212.785 43.4473 212.111 43.4473C211.037 43.4473 210.178 43.75 209.533 44.3555C208.889 44.9512 208.566 45.625 208.566 46.377C208.566 47.041 208.747 47.6074 209.108 48.0762C209.479 48.5449 209.934 48.8818 210.471 49.0869C211.008 49.2822 211.604 49.3799 212.258 49.3799ZM229.47 60.3369C227.097 60.3369 225.134 59.6436 223.581 58.2568L225.471 54.9902C226.037 55.5176 226.628 55.9082 227.243 56.1621C227.868 56.416 228.61 56.543 229.47 56.543C230.524 56.543 231.438 56.2695 232.209 55.7227C232.99 55.1758 233.562 54.4824 233.923 53.6426C234.294 52.8027 234.479 51.8896 234.479 50.9033V50.4639C233.962 51.1865 233.229 51.7969 232.282 52.2949C231.345 52.793 230.354 53.042 229.309 53.042C228.078 53.042 226.95 52.8027 225.925 52.3242C224.909 51.8359 224.079 51.0889 223.435 50.083C222.79 49.0771 222.468 47.8906 222.468 46.5234C222.468 44.5508 223.186 42.915 224.621 41.6162C226.057 40.3076 227.902 39.6533 230.158 39.6533C231.34 39.6533 232.409 39.834 233.366 40.1953C234.333 40.5469 235.148 41.0352 235.812 41.6602C236.477 42.2852 237.033 43.0371 237.482 43.916C237.932 44.7949 238.259 45.7422 238.464 46.7578C238.669 47.7734 238.771 48.8574 238.771 50.0098C238.771 52.0312 238.41 53.8184 237.688 55.3711C236.965 56.9141 235.896 58.1299 234.479 59.0186C233.063 59.8975 231.394 60.3369 229.47 60.3369ZM230.51 49.3799C231.262 49.3799 231.984 49.2188 232.678 48.8965C233.381 48.5645 233.972 48.1055 234.45 47.5195C234.401 47.0117 234.294 46.5283 234.128 46.0693C233.962 45.6104 233.723 45.1807 233.41 44.7803C233.098 44.3701 232.678 44.0479 232.15 43.8135C231.633 43.5693 231.037 43.4473 230.363 43.4473C229.289 43.4473 228.43 43.75 227.785 44.3555C227.141 44.9512 226.818 45.625 226.818 46.377C226.818 47.041 226.999 47.6074 227.36 48.0762C227.731 48.5449 228.186 48.8818 228.723 49.0869C229.26 49.2822 229.855 49.3799 230.51 49.3799Z" fill="black"/>
<path d="M44.4609 23.0234V22.1953H47.5391V18.8828H48.4453V22.1953H51.5234V23.0234H48.4453V26.4297H47.5391V23.0234H44.4609ZM52.4766 18.5156V17.3281H59.7578V18.2422L55.3906 28H53.9219L58.2266 18.5156H52.4766ZM60.9219 24.1094C60.9219 22.8281 61.1172 21.5807 61.5078 20.3672C61.8984 19.1484 62.4557 18.0391 63.1797 17.0391L63.8984 17.5859C63.3359 18.7005 62.9167 19.7526 62.6406 20.7422C62.3698 21.7318 62.2344 22.8542 62.2344 24.1094C62.2344 25.3594 62.3698 26.4818 62.6406 27.4766C62.9167 28.4714 63.3359 29.5208 63.8984 30.625L63.1797 31.1875C62.4557 30.1979 61.8984 29.0938 61.5078 27.875C61.1172 26.651 60.9219 25.3958 60.9219 24.1094ZM64.7031 25.2969V24.1953L69.2734 17.3281H71.1016V24.125H72.6016V25.2969H71.1016V28H69.7734V25.2969H64.7031ZM66.0312 24.125H69.7734V18.5625L66.0312 24.125ZM73.8906 20.6406C73.8906 20.1771 73.9766 19.737 74.1484 19.3203C74.3255 18.8984 74.5703 18.526 74.8828 18.2031C75.1953 17.8802 75.5885 17.625 76.0625 17.4375C76.5417 17.2448 77.0625 17.1484 77.625 17.1484C78.2083 17.1484 78.7344 17.2474 79.2031 17.4453C79.6719 17.6432 80.0625 17.9115 80.375 18.25C80.6875 18.5885 80.9479 18.9948 81.1562 19.4688C81.3646 19.9427 81.5156 20.4453 81.6094 20.9766C81.7031 21.5078 81.75 22.0729 81.75 22.6719C81.75 23.2604 81.6953 23.8229 81.5859 24.3594C81.4818 24.8906 81.3125 25.3906 81.0781 25.8594C80.849 26.3229 80.5677 26.7266 80.2344 27.0703C79.901 27.4141 79.4922 27.6849 79.0078 27.8828C78.5286 28.0807 77.9974 28.1797 77.4141 28.1797C76.1901 28.1797 75.2031 27.7526 74.4531 26.8984L75.125 25.9062C75.4271 26.2604 75.7552 26.5312 76.1094 26.7188C76.4635 26.901 76.8984 26.9922 77.4141 26.9922C77.8307 26.9922 78.2083 26.9115 78.5469 26.75C78.8906 26.5885 79.1771 26.3724 79.4062 26.1016C79.6354 25.8307 79.8281 25.5156 79.9844 25.1562C80.1406 24.7917 80.2526 24.4141 80.3203 24.0234C80.388 23.6328 80.4219 23.2292 80.4219 22.8125C80.4219 22.6198 80.4167 22.4766 80.4062 22.3828C80.1406 22.8047 79.7292 23.1875 79.1719 23.5312C78.6146 23.875 78.0234 24.0469 77.3984 24.0469C76.7422 24.0469 76.1536 23.9245 75.6328 23.6797C75.1172 23.4349 74.6979 23.0521 74.375 22.5312C74.0521 22.0052 73.8906 21.375 73.8906 20.6406ZM75.2344 20.5938C75.2344 21.3438 75.4635 21.9167 75.9219 22.3125C76.3854 22.7031 76.9792 22.8984 77.7031 22.8984C78.224 22.8984 78.7266 22.7526 79.2109 22.4609C79.6953 22.1693 80.0781 21.7865 80.3594 21.3125C80.3385 21.0312 80.2917 20.7578 80.2188 20.4922C80.151 20.2266 80.0469 19.9609 79.9062 19.6953C79.7656 19.4297 79.5964 19.1979 79.3984 19C79.2057 18.8021 78.9609 18.6432 78.6641 18.5234C78.3724 18.3984 78.0469 18.3359 77.6875 18.3359C77.2969 18.3359 76.9401 18.4062 76.6172 18.5469C76.2995 18.6875 76.0417 18.8698 75.8438 19.0938C75.6458 19.3125 75.4948 19.5521 75.3906 19.8125C75.2865 20.0729 75.2344 20.3333 75.2344 20.5938ZM83.3438 20.6406C83.3438 20.1771 83.4297 19.737 83.6016 19.3203C83.7786 18.8984 84.0234 18.526 84.3359 18.2031C84.6484 17.8802 85.0417 17.625 85.5156 17.4375C85.9948 17.2448 86.5156 17.1484 87.0781 17.1484C87.6615 17.1484 88.1875 17.2474 88.6562 17.4453C89.125 17.6432 89.5156 17.9115 89.8281 18.25C90.1406 18.5885 90.401 18.9948 90.6094 19.4688C90.8177 19.9427 90.9688 20.4453 91.0625 20.9766C91.1562 21.5078 91.2031 22.0729 91.2031 22.6719C91.2031 23.2604 91.1484 23.8229 91.0391 24.3594C90.9349 24.8906 90.7656 25.3906 90.5312 25.8594C90.3021 26.3229 90.0208 26.7266 89.6875 27.0703C89.3542 27.4141 88.9453 27.6849 88.4609 27.8828C87.9818 28.0807 87.4505 28.1797 86.8672 28.1797C85.6432 28.1797 84.6562 27.7526 83.9062 26.8984L84.5781 25.9062C84.8802 26.2604 85.2083 26.5312 85.5625 26.7188C85.9167 26.901 86.3516 26.9922 86.8672 26.9922C87.2839 26.9922 87.6615 26.9115 88 26.75C88.3438 26.5885 88.6302 26.3724 88.8594 26.1016C89.0885 25.8307 89.2812 25.5156 89.4375 25.1562C89.5938 24.7917 89.7057 24.4141 89.7734 24.0234C89.8411 23.6328 89.875 23.2292 89.875 22.8125C89.875 22.6198 89.8698 22.4766 89.8594 22.3828C89.5938 22.8047 89.1823 23.1875 88.625 23.5312C88.0677 23.875 87.4766 24.0469 86.8516 24.0469C86.1953 24.0469 85.6068 23.9245 85.0859 23.6797C84.5703 23.4349 84.151 23.0521 83.8281 22.5312C83.5052 22.0052 83.3438 21.375 83.3438 20.6406ZM84.6875 20.5938C84.6875 21.3438 84.9167 21.9167 85.375 22.3125C85.8385 22.7031 86.4323 22.8984 87.1562 22.8984C87.6771 22.8984 88.1797 22.7526 88.6641 22.4609C89.1484 22.1693 89.5312 21.7865 89.8125 21.3125C89.7917 21.0312 89.7448 20.7578 89.6719 20.4922C89.6042 20.2266 89.5 19.9609 89.3594 19.6953C89.2188 19.4297 89.0495 19.1979 88.8516 19C88.6589 18.8021 88.4141 18.6432 88.1172 18.5234C87.8255 18.3984 87.5 18.3359 87.1406 18.3359C86.75 18.3359 86.3932 18.4062 86.0703 18.5469C85.7526 18.6875 85.4948 18.8698 85.2969 19.0938C85.099 19.3125 84.9479 19.5521 84.8438 19.8125C84.7396 20.0729 84.6875 20.3333 84.6875 20.5938ZM92.2891 30.625C92.8568 29.526 93.2786 28.4792 93.5547 27.4844C93.8307 26.4844 93.9688 25.3594 93.9688 24.1094C93.9688 22.8542 93.8307 21.7318 93.5547 20.7422C93.2786 19.7474 92.8568 18.6953 92.2891 17.5859L93.0078 17.0391C93.737 18.0339 94.2969 19.1406 94.6875 20.3594C95.0833 21.5781 95.2812 22.8281 95.2812 24.1094C95.2812 25.3958 95.0833 26.651 94.6875 27.875C94.2969 29.099 93.737 30.2031 93.0078 31.1875L92.2891 30.625Z" fill="#A7A8A0"/>
<path d="M107.462 28.3369C105.089 28.3369 103.126 27.6436 101.573 26.2568L103.463 22.9902C104.029 23.5176 104.62 23.9082 105.235 24.1621C105.86 24.416 106.603 24.543 107.462 24.543C108.517 24.543 109.43 24.2695 110.201 23.7227C110.982 23.1758 111.554 22.4824 111.915 21.6426C112.286 20.8027 112.472 19.8896 112.472 18.9033V18.4639C111.954 19.1865 111.222 19.7969 110.274 20.2949C109.337 20.793 108.346 21.042 107.301 21.042C106.07 21.042 104.942 20.8027 103.917 20.3242C102.901 19.8359 102.071 19.0889 101.427 18.083C100.782 17.0771 100.46 15.8906 100.46 14.5234C100.46 12.5508 101.178 10.915 102.613 9.61621C104.049 8.30762 105.895 7.65332 108.15 7.65332C109.332 7.65332 110.401 7.83398 111.358 8.19531C112.325 8.54688 113.141 9.03516 113.805 9.66016C114.469 10.2852 115.025 11.0371 115.475 11.916C115.924 12.7949 116.251 13.7422 116.456 14.7578C116.661 15.7734 116.764 16.8574 116.764 18.0098C116.764 20.0312 116.402 21.8184 115.68 23.3711C114.957 24.9141 113.888 26.1299 112.472 27.0186C111.056 27.8975 109.386 28.3369 107.462 28.3369ZM108.502 17.3799C109.254 17.3799 109.977 17.2188 110.67 16.8965C111.373 16.5645 111.964 16.1055 112.442 15.5195C112.394 15.0117 112.286 14.5283 112.12 14.0693C111.954 13.6104 111.715 13.1807 111.402 12.7803C111.09 12.3701 110.67 12.0479 110.143 11.8135C109.625 11.5693 109.029 11.4473 108.355 11.4473C107.281 11.4473 106.422 11.75 105.777 12.3555C105.133 12.9512 104.811 13.625 104.811 14.377C104.811 15.041 104.991 15.6074 105.353 16.0762C105.724 16.5449 106.178 16.8818 106.715 17.0869C107.252 17.2822 107.848 17.3799 108.502 17.3799ZM125.714 28.3369C123.341 28.3369 121.378 27.6436 119.825 26.2568L121.715 22.9902C122.281 23.5176 122.872 23.9082 123.487 24.1621C124.112 24.416 124.854 24.543 125.714 24.543C126.769 24.543 127.682 24.2695 128.453 23.7227C129.234 23.1758 129.806 22.4824 130.167 21.6426C130.538 20.8027 130.724 19.8896 130.724 18.9033V18.4639C130.206 19.1865 129.474 19.7969 128.526 20.2949C127.589 20.793 126.598 21.042 125.553 21.042C124.322 21.042 123.194 20.8027 122.169 20.3242C121.153 19.8359 120.323 19.0889 119.679 18.083C119.034 17.0771 118.712 15.8906 118.712 14.5234C118.712 12.5508 119.43 10.915 120.865 9.61621C122.301 8.30762 124.146 7.65332 126.402 7.65332C127.584 7.65332 128.653 7.83398 129.61 8.19531C130.577 8.54688 131.393 9.03516 132.057 9.66016C132.721 10.2852 133.277 11.0371 133.727 11.916C134.176 12.7949 134.503 13.7422 134.708 14.7578C134.913 15.7734 135.016 16.8574 135.016 18.0098C135.016 20.0312 134.654 21.8184 133.932 23.3711C133.209 24.9141 132.14 26.1299 130.724 27.0186C129.308 27.8975 127.638 28.3369 125.714 28.3369ZM126.754 17.3799C127.506 17.3799 128.229 17.2188 128.922 16.8965C129.625 16.5645 130.216 16.1055 130.694 15.5195C130.646 15.0117 130.538 14.5283 130.372 14.0693C130.206 13.6104 129.967 13.1807 129.654 12.7803C129.342 12.3701 128.922 12.0479 128.395 11.8135C127.877 11.5693 127.281 11.4473 126.607 11.4473C125.533 11.4473 124.674 11.75 124.029 12.3555C123.385 12.9512 123.062 13.625 123.062 14.377C123.062 15.041 123.243 15.6074 123.604 16.0762C123.976 16.5449 124.43 16.8818 124.967 17.0869C125.504 17.2822 126.1 17.3799 126.754 17.3799ZM143.966 28.3369C141.593 28.3369 139.63 27.6436 138.077 26.2568L139.967 22.9902C140.533 23.5176 141.124 23.9082 141.739 24.1621C142.364 24.416 143.106 24.543 143.966 24.543C145.021 24.543 145.934 24.2695 146.705 23.7227C147.486 23.1758 148.058 22.4824 148.419 21.6426C148.79 20.8027 148.976 19.8896 148.976 18.9033V18.4639C148.458 19.1865 147.726 19.7969 146.778 20.2949C145.841 20.793 144.85 21.042 143.805 21.042C142.574 21.042 141.446 20.8027 140.421 20.3242C139.405 19.8359 138.575 19.0889 137.931 18.083C137.286 17.0771 136.964 15.8906 136.964 14.5234C136.964 12.5508 137.682 10.915 139.117 9.61621C140.553 8.30762 142.398 7.65332 144.654 7.65332C145.836 7.65332 146.905 7.83398 147.862 8.19531C148.829 8.54688 149.645 9.03516 150.309 9.66016C150.973 10.2852 151.529 11.0371 151.979 11.916C152.428 12.7949 152.755 13.7422 152.96 14.7578C153.165 15.7734 153.268 16.8574 153.268 18.0098C153.268 20.0312 152.906 21.8184 152.184 23.3711C151.461 24.9141 150.392 26.1299 148.976 27.0186C147.56 27.8975 145.89 28.3369 143.966 28.3369ZM145.006 17.3799C145.758 17.3799 146.48 17.2188 147.174 16.8965C147.877 16.5645 148.468 16.1055 148.946 15.5195C148.897 15.0117 148.79 14.5283 148.624 14.0693C148.458 13.6104 148.219 13.1807 147.906 12.7803C147.594 12.3701 147.174 12.0479 146.646 11.8135C146.129 11.5693 145.533 11.4473 144.859 11.4473C143.785 11.4473 142.926 11.75 142.281 12.3555C141.637 12.9512 141.314 13.625 141.314 14.377C141.314 15.041 141.495 15.6074 141.856 16.0762C142.228 16.5449 142.682 16.8818 143.219 17.0869C143.756 17.2822 144.352 17.3799 145.006 17.3799ZM162.423 22.3604H155.216V19.123H162.423V22.3604ZM173.673 28H169.41V13.4834L166.07 16.8672L163.653 14.3184L169.952 7.99023H173.673V28ZM184.835 28.3662C181.534 28.3662 178.961 27.3652 177.115 25.3633L179.488 22.3896C180.895 23.8545 182.667 24.5869 184.806 24.5869C185.958 24.5869 186.866 24.3037 187.53 23.7373C188.194 23.1709 188.526 22.4629 188.526 21.6133C188.526 20.7148 188.204 19.9971 187.56 19.46C186.925 18.9131 186.046 18.6396 184.923 18.6396C183.263 18.6396 181.861 19.1816 180.719 20.2656L177.745 19.4746V7.99023H191.485V11.7402H182.008V16.6328C182.516 16.125 183.155 15.7197 183.927 15.417C184.698 15.1045 185.528 14.9482 186.417 14.9482C187.56 14.9482 188.614 15.2021 189.581 15.71C190.548 16.2178 191.334 16.9746 191.939 17.9805C192.545 18.9766 192.848 20.124 192.848 21.4229C192.848 23.542 192.12 25.2314 190.665 26.4912C189.21 27.7412 187.267 28.3662 184.835 28.3662ZM202.003 22.3604H194.796V19.123H202.003V22.3604ZM210.792 28.3369C208.419 28.3369 206.456 27.6436 204.903 26.2568L206.793 22.9902C207.359 23.5176 207.95 23.9082 208.565 24.1621C209.19 24.416 209.933 24.543 210.792 24.543C211.847 24.543 212.76 24.2695 213.531 23.7227C214.312 23.1758 214.884 22.4824 215.245 21.6426C215.616 20.8027 215.802 19.8896 215.802 18.9033V18.4639C215.284 19.1865 214.552 19.7969 213.604 20.2949C212.667 20.793 211.676 21.042 210.631 21.042C209.4 21.042 208.272 20.8027 207.247 20.3242C206.231 19.8359 205.401 19.0889 204.757 18.083C204.112 17.0771 203.79 15.8906 203.79 14.5234C203.79 12.5508 204.508 10.915 205.943 9.61621C207.379 8.30762 209.225 7.65332 211.48 7.65332C212.662 7.65332 213.731 7.83398 214.688 8.19531C215.655 8.54688 216.471 9.03516 217.135 9.66016C217.799 10.2852 218.355 11.0371 218.805 11.916C219.254 12.7949 219.581 13.7422 219.786 14.7578C219.991 15.7734 220.094 16.8574 220.094 18.0098C220.094 20.0312 219.732 21.8184 219.01 23.3711C218.287 24.9141 217.218 26.1299 215.802 27.0186C214.386 27.8975 212.716 28.3369 210.792 28.3369ZM211.832 17.3799C212.584 17.3799 213.307 17.2188 214 16.8965C214.703 16.5645 215.294 16.1055 215.772 15.5195C215.724 15.0117 215.616 14.5283 215.45 14.0693C215.284 13.6104 215.045 13.1807 214.732 12.7803C214.42 12.3701 214 12.0479 213.473 11.8135C212.955 11.5693 212.359 11.4473 211.686 11.4473C210.611 11.4473 209.752 11.75 209.107 12.3555C208.463 12.9512 208.141 13.625 208.141 14.377C208.141 15.041 208.321 15.6074 208.683 16.0762C209.054 16.5449 209.508 16.8818 210.045 17.0869C210.582 17.2822 211.178 17.3799 211.832 17.3799ZM229.044 28.3369C226.671 28.3369 224.708 27.6436 223.155 26.2568L225.045 22.9902C225.611 23.5176 226.202 23.9082 226.817 24.1621C227.442 24.416 228.185 24.543 229.044 24.543C230.099 24.543 231.012 24.2695 231.783 23.7227C232.564 23.1758 233.136 22.4824 233.497 21.6426C233.868 20.8027 234.054 19.8896 234.054 18.9033V18.4639C233.536 19.1865 232.804 19.7969 231.856 20.2949C230.919 20.793 229.928 21.042 228.883 21.042C227.652 21.042 226.524 20.8027 225.499 20.3242C224.483 19.8359 223.653 19.0889 223.009 18.083C222.364 17.0771 222.042 15.8906 222.042 14.5234C222.042 12.5508 222.76 10.915 224.195 9.61621C225.631 8.30762 227.477 7.65332 229.732 7.65332C230.914 7.65332 231.983 7.83398 232.94 8.19531C233.907 8.54688 234.723 9.03516 235.387 9.66016C236.051 10.2852 236.607 11.0371 237.057 11.916C237.506 12.7949 237.833 13.7422 238.038 14.7578C238.243 15.7734 238.346 16.8574 238.346 18.0098C238.346 20.0312 237.984 21.8184 237.262 23.3711C236.539 24.9141 235.47 26.1299 234.054 27.0186C232.638 27.8975 230.968 28.3369 229.044 28.3369ZM230.084 17.3799C230.836 17.3799 231.559 17.2188 232.252 16.8965C232.955 16.5645 233.546 16.1055 234.024 15.5195C233.976 15.0117 233.868 14.5283 233.702 14.0693C233.536 13.6104 233.297 13.1807 232.984 12.7803C232.672 12.3701 232.252 12.0479 231.725 11.8135C231.207 11.5693 230.611 11.4473 229.938 11.4473C228.863 11.4473 228.004 11.75 227.359 12.3555C226.715 12.9512 226.393 13.625 226.393 14.377C226.393 15.041 226.573 15.6074 226.935 16.0762C227.306 16.5449 227.76 16.8818 228.297 17.0869C228.834 17.2822 229.43 17.3799 230.084 17.3799Z" fill="black"/>
<path d="M131.403 78.626L132.094 77.8877C132.381 78.2568 132.777 78.5576 133.283 78.79C133.789 79.0179 134.325 79.1318 134.89 79.1318C135.623 79.1318 136.198 78.9769 136.612 78.667C137.032 78.3525 137.241 77.9242 137.241 77.3818C137.241 76.8213 137.025 76.4066 136.592 76.1377C136.159 75.8643 135.569 75.7275 134.821 75.7275H132.921V74.6953H134.821C135.254 74.6953 135.635 74.6452 135.963 74.5449C136.296 74.4401 136.567 74.2692 136.776 74.0322C136.986 73.7952 137.091 73.5036 137.091 73.1572C137.091 72.6559 136.877 72.264 136.448 71.9814C136.024 71.6989 135.491 71.5576 134.849 71.5576C133.791 71.5576 132.91 71.9359 132.203 72.6924L131.561 71.9609C131.93 71.5326 132.406 71.1862 132.989 70.9219C133.573 70.6576 134.22 70.5254 134.931 70.5254C135.55 70.5254 136.111 70.6211 136.612 70.8125C137.114 71.0039 137.517 71.291 137.822 71.6738C138.128 72.0566 138.28 72.5033 138.28 73.0137C138.28 73.3327 138.216 73.6266 138.089 73.8955C137.966 74.1598 137.799 74.3786 137.59 74.5518C137.385 74.7204 137.171 74.8571 136.947 74.9619C136.724 75.0667 136.496 75.1396 136.264 75.1807C136.441 75.1943 136.626 75.2354 136.817 75.3037C137.009 75.3675 137.2 75.4632 137.392 75.5908C137.583 75.7184 137.754 75.8688 137.904 76.042C138.055 76.2106 138.178 76.4202 138.273 76.6709C138.369 76.9215 138.417 77.1904 138.417 77.4775C138.417 78.2614 138.093 78.9062 137.446 79.4121C136.799 79.918 135.956 80.1709 134.917 80.1709C134.133 80.1709 133.429 80.0251 132.805 79.7334C132.18 79.4417 131.713 79.0726 131.403 78.626ZM139.846 77.9287C139.846 77.5641 139.914 77.236 140.051 76.9443C140.188 76.6527 140.37 76.4202 140.598 76.2471C140.826 76.0693 141.076 75.9349 141.35 75.8438C141.628 75.748 141.915 75.7002 142.211 75.7002C143.173 75.7002 143.92 76.0078 144.453 76.623V75.4062C144.453 74.9642 144.294 74.6156 143.975 74.3604C143.656 74.1051 143.245 73.9775 142.744 73.9775C141.951 73.9775 141.261 74.292 140.673 74.9209L140.181 74.1895C140.896 73.4421 141.799 73.0684 142.888 73.0684C143.257 73.0684 143.594 73.1117 143.899 73.1982C144.209 73.2848 144.485 73.417 144.727 73.5947C144.973 73.7679 145.164 74.0049 145.301 74.3057C145.438 74.6064 145.506 74.9551 145.506 75.3516V80H144.453V79.2275C143.879 79.8564 143.132 80.1709 142.211 80.1709C141.814 80.1709 141.441 80.0889 141.09 79.9248C140.739 79.7607 140.443 79.5055 140.201 79.1592C139.964 78.8083 139.846 78.3981 139.846 77.9287ZM140.926 77.9424C140.926 78.3708 141.081 78.724 141.391 79.002C141.705 79.2754 142.106 79.4121 142.594 79.4121C142.977 79.4121 143.332 79.3415 143.66 79.2002C143.993 79.0544 144.257 78.8447 144.453 78.5713V77.2998C144.257 77.0264 143.993 76.819 143.66 76.6777C143.332 76.5319 142.977 76.459 142.594 76.459C142.106 76.459 141.705 76.598 141.391 76.876C141.081 77.154 140.926 77.5094 140.926 77.9424ZM147.611 80V73.2393H148.657V76.835L152.212 73.2393H153.545L150.551 76.3018L153.559 80H152.212L149.778 76.9648L148.657 78.0654V80H147.611ZM154.42 77.9287C154.42 77.5641 154.488 77.236 154.625 76.9443C154.762 76.6527 154.944 76.4202 155.172 76.2471C155.4 76.0693 155.65 75.9349 155.924 75.8438C156.202 75.748 156.489 75.7002 156.785 75.7002C157.747 75.7002 158.494 76.0078 159.027 76.623V75.4062C159.027 74.9642 158.868 74.6156 158.549 74.3604C158.23 74.1051 157.82 73.9775 157.318 73.9775C156.525 73.9775 155.835 74.292 155.247 74.9209L154.755 74.1895C155.47 73.4421 156.373 73.0684 157.462 73.0684C157.831 73.0684 158.168 73.1117 158.474 73.1982C158.784 73.2848 159.059 73.417 159.301 73.5947C159.547 73.7679 159.738 74.0049 159.875 74.3057C160.012 74.6064 160.08 74.9551 160.08 75.3516V80H159.027V79.2275C158.453 79.8564 157.706 80.1709 156.785 80.1709C156.389 80.1709 156.015 80.0889 155.664 79.9248C155.313 79.7607 155.017 79.5055 154.775 79.1592C154.538 78.8083 154.42 78.3981 154.42 77.9287ZM155.5 77.9424C155.5 78.3708 155.655 78.724 155.965 79.002C156.279 79.2754 156.68 79.4121 157.168 79.4121C157.551 79.4121 157.906 79.3415 158.234 79.2002C158.567 79.0544 158.831 78.8447 159.027 78.5713V77.2998C158.831 77.0264 158.567 76.819 158.234 76.6777C157.906 76.5319 157.551 76.459 157.168 76.459C156.68 76.459 156.279 76.598 155.965 76.876C155.655 77.154 155.5 77.5094 155.5 77.9424ZM161.522 79.0635L162.042 78.3867C162.68 78.9974 163.525 79.3027 164.578 79.3027C165.18 79.3027 165.66 79.1956 166.021 78.9814C166.385 78.7673 166.567 78.4824 166.567 78.127C166.567 77.3796 165.856 77.0059 164.435 77.0059H162.924V76.1514H164.435C165.027 76.1514 165.508 76.0557 165.877 75.8643C166.251 75.6683 166.438 75.3857 166.438 75.0166C166.438 74.6976 166.248 74.4378 165.87 74.2373C165.496 74.0368 165.027 73.9365 164.462 73.9365C163.519 73.9365 162.764 74.2259 162.199 74.8047L161.652 74.1621C162.359 73.4421 163.282 73.082 164.421 73.082C165.346 73.0729 166.096 73.2301 166.67 73.5537C167.244 73.8773 167.531 74.3216 167.531 74.8867C167.531 75.2012 167.433 75.4837 167.237 75.7344C167.041 75.985 166.809 76.1742 166.54 76.3018C166.276 76.4248 166 76.5046 165.713 76.541C165.923 76.5547 166.134 76.598 166.349 76.6709C166.567 76.7393 166.777 76.8372 166.978 76.9648C167.183 77.0924 167.349 77.2633 167.477 77.4775C167.604 77.6917 167.668 77.931 167.668 78.1953C167.668 78.7741 167.39 79.248 166.834 79.6172C166.283 79.9863 165.531 80.1709 164.578 80.1709C163.279 80.1709 162.261 79.8018 161.522 79.0635ZM168.994 77.9287C168.994 77.5641 169.062 77.236 169.199 76.9443C169.336 76.6527 169.518 76.4202 169.746 76.2471C169.974 76.0693 170.225 75.9349 170.498 75.8438C170.776 75.748 171.063 75.7002 171.359 75.7002C172.321 75.7002 173.068 76.0078 173.602 76.623V75.4062C173.602 74.9642 173.442 74.6156 173.123 74.3604C172.804 74.1051 172.394 73.9775 171.893 73.9775C171.1 73.9775 170.409 74.292 169.821 74.9209L169.329 74.1895C170.045 73.4421 170.947 73.0684 172.036 73.0684C172.405 73.0684 172.743 73.1117 173.048 73.1982C173.358 73.2848 173.633 73.417 173.875 73.5947C174.121 73.7679 174.312 74.0049 174.449 74.3057C174.586 74.6064 174.654 74.9551 174.654 75.3516V80H173.602V79.2275C173.027 79.8564 172.28 80.1709 171.359 80.1709C170.963 80.1709 170.589 80.0889 170.238 79.9248C169.887 79.7607 169.591 79.5055 169.35 79.1592C169.113 78.8083 168.994 78.3981 168.994 77.9287ZM170.074 77.9424C170.074 78.3708 170.229 78.724 170.539 79.002C170.854 79.2754 171.255 79.4121 171.742 79.4121C172.125 79.4121 172.48 79.3415 172.809 79.2002C173.141 79.0544 173.406 78.8447 173.602 78.5713V77.2998C173.406 77.0264 173.141 76.819 172.809 76.6777C172.48 76.5319 172.125 76.459 171.742 76.459C171.255 76.459 170.854 76.598 170.539 76.876C170.229 77.154 170.074 77.5094 170.074 77.9424ZM176.028 74.1621V73.2393H181.012V74.1621H179.036V80H177.99V74.1621H176.028ZM182.393 80V73.2393H183.438V75.8574H185.975C186.645 75.8574 187.166 76.0557 187.54 76.4521C187.914 76.8486 188.101 77.3408 188.101 77.9287C188.101 78.5166 187.911 79.0088 187.533 79.4053C187.16 79.8018 186.64 80 185.975 80H182.393ZM183.438 79.0771H185.865C186.234 79.0771 186.519 78.9723 186.72 78.7627C186.92 78.5531 187.021 78.2751 187.021 77.9287C187.021 77.5869 186.92 77.3112 186.72 77.1016C186.524 76.8874 186.239 76.7803 185.865 76.7803H183.438V79.0771ZM192.653 79.0635L193.173 78.3867C193.811 78.9974 194.656 79.3027 195.709 79.3027C196.311 79.3027 196.791 79.1956 197.151 78.9814C197.516 78.7673 197.698 78.4824 197.698 78.127C197.698 77.3796 196.987 77.0059 195.565 77.0059H194.055V76.1514H195.565C196.158 76.1514 196.639 76.0557 197.008 75.8643C197.382 75.6683 197.568 75.3857 197.568 75.0166C197.568 74.6976 197.379 74.4378 197.001 74.2373C196.627 74.0368 196.158 73.9365 195.593 73.9365C194.649 73.9365 193.895 74.2259 193.33 74.8047L192.783 74.1621C193.49 73.4421 194.412 73.082 195.552 73.082C196.477 73.0729 197.227 73.2301 197.801 73.5537C198.375 73.8773 198.662 74.3216 198.662 74.8867C198.662 75.2012 198.564 75.4837 198.368 75.7344C198.172 75.985 197.94 76.1742 197.671 76.3018C197.407 76.4248 197.131 76.5046 196.844 76.541C197.053 76.5547 197.265 76.598 197.479 76.6709C197.698 76.7393 197.908 76.8372 198.108 76.9648C198.313 77.0924 198.48 77.2633 198.607 77.4775C198.735 77.6917 198.799 77.931 198.799 78.1953C198.799 78.7741 198.521 79.248 197.965 79.6172C197.413 79.9863 196.661 80.1709 195.709 80.1709C194.41 80.1709 193.392 79.8018 192.653 79.0635ZM200.508 80V73.2393H204.227C204.814 73.2393 205.279 73.3988 205.621 73.7178C205.963 74.0368 206.134 74.4561 206.134 74.9756C206.134 75.363 206.029 75.6911 205.819 75.96C205.61 76.2288 205.35 76.4134 205.04 76.5137C205.386 76.6003 205.678 76.8031 205.915 77.1221C206.152 77.4365 206.271 77.7852 206.271 78.168C206.271 78.724 206.095 79.1683 205.744 79.501C205.398 79.8337 204.917 80 204.302 80H200.508ZM201.554 79.0771H204.09C204.427 79.0771 204.694 78.9837 204.89 78.7969C205.086 78.61 205.184 78.3571 205.184 78.0381C205.184 77.7464 205.086 77.5003 204.89 77.2998C204.698 77.0947 204.432 76.9922 204.09 76.9922H201.554V79.0771ZM201.554 76.0693H204.049C204.368 76.0693 204.614 75.9827 204.787 75.8096C204.965 75.6318 205.054 75.404 205.054 75.126C205.054 74.8298 204.965 74.5951 204.787 74.4219C204.614 74.2487 204.368 74.1621 204.049 74.1621H201.554V76.0693ZM208.267 78.4004C207.998 77.8626 207.863 77.2656 207.863 76.6094C207.863 75.9531 207.998 75.3584 208.267 74.8252C208.535 74.292 208.925 73.8659 209.436 73.5469C209.951 73.2279 210.543 73.0684 211.213 73.0684C211.883 73.0684 212.473 73.2279 212.983 73.5469C213.498 73.8659 213.888 74.292 214.152 74.8252C214.421 75.3584 214.556 75.9531 214.556 76.6094C214.556 77.2656 214.421 77.8626 214.152 78.4004C213.888 78.9382 213.498 79.3688 212.983 79.6924C212.473 80.0114 211.883 80.1709 211.213 80.1709C210.543 80.1709 209.951 80.0114 209.436 79.6924C208.925 79.3688 208.535 78.9382 208.267 78.4004ZM208.957 76.6094C208.957 77.3385 209.16 77.9583 209.565 78.4688C209.971 78.9746 210.52 79.2275 211.213 79.2275C211.678 79.2275 212.081 79.1045 212.423 78.8584C212.769 78.6123 213.027 78.2956 213.195 77.9082C213.364 77.5163 213.448 77.0833 213.448 76.6094C213.448 76.14 213.364 75.7116 213.195 75.3242C213.027 74.9368 212.769 74.6201 212.423 74.374C212.081 74.1279 211.678 74.0049 211.213 74.0049C210.748 74.0049 210.34 74.1279 209.989 74.374C209.643 74.6201 209.383 74.9391 209.21 75.3311C209.041 75.7184 208.957 76.1445 208.957 76.6094ZM216.271 80V73.2393H217.317V76.0488H220.845V73.2393H221.897V80H220.845V76.9785H217.317V80H216.271ZM224.003 78.4004C223.734 77.8626 223.6 77.2656 223.6 76.6094C223.6 75.9531 223.734 75.3584 224.003 74.8252C224.272 74.292 224.661 73.8659 225.172 73.5469C225.687 73.2279 226.279 73.0684 226.949 73.0684C227.619 73.0684 228.209 73.2279 228.72 73.5469C229.235 73.8659 229.624 74.292 229.889 74.8252C230.158 75.3584 230.292 75.9531 230.292 76.6094C230.292 77.2656 230.158 77.8626 229.889 78.4004C229.624 78.9382 229.235 79.3688 228.72 79.6924C228.209 80.0114 227.619 80.1709 226.949 80.1709C226.279 80.1709 225.687 80.0114 225.172 79.6924C224.661 79.3688 224.272 78.9382 224.003 78.4004ZM224.693 76.6094C224.693 77.3385 224.896 77.9583 225.302 78.4688C225.707 78.9746 226.257 79.2275 226.949 79.2275C227.414 79.2275 227.817 79.1045 228.159 78.8584C228.506 78.6123 228.763 78.2956 228.932 77.9082C229.1 77.5163 229.185 77.0833 229.185 76.6094C229.185 76.14 229.1 75.7116 228.932 75.3242C228.763 74.9368 228.506 74.6201 228.159 74.374C227.817 74.1279 227.414 74.0049 226.949 74.0049C226.484 74.0049 226.076 74.1279 225.726 74.374C225.379 74.6201 225.119 74.9391 224.946 75.3311C224.778 75.7184 224.693 76.1445 224.693 76.6094ZM232.008 80V73.2393H233.054V76.835L236.608 73.2393H237.941L234.947 76.3018L237.955 80H236.608L234.175 76.9648L233.054 78.0654V80H232.008Z" fill="#009344"/>
<path d="M131 81.8525H238.146V82.126H131V81.8525Z" fill="#009344"/>
<path d="M35.4589 50.5882C34.3948 49.5294 33.035 49 31.5571 49C28.5421 49 26.0591 51.4118 26.0591 54.4706C26.0591 55.4118 26.2956 56.4118 26.7685 57.2353L26 60L28.8968 59.2941C29.6653 59.7647 30.6112 59.9412 31.498 59.9412C34.513 59.9412 36.9959 57.5294 36.9959 54.4706C37.0551 53.0588 36.4639 51.6471 35.4589 50.5882ZM31.5571 59.0588C30.7294 59.0588 29.9018 58.8235 29.1924 58.4118L29.0741 58.2941L27.3006 58.7647L27.7735 57.1176L27.6553 57C27.2415 56.2353 27.005 55.4118 27.005 54.5294C26.9459 52.0588 29.015 49.9412 31.5571 49.9412C32.7986 49.9412 33.9218 50.4118 34.8086 51.2941C35.6362 52.1176 36.1683 53.2941 36.1683 54.5294C36.1683 57 34.0992 59.0588 31.5571 59.0588ZM34.0992 55.6471C33.9809 55.5882 33.2715 55.2353 33.1533 55.1765C33.035 55.1176 32.9168 55.1176 32.8577 55.2353C32.7395 55.3529 32.503 55.7059 32.3847 55.7647C32.2665 55.8824 32.2665 55.8824 32.0892 55.8235C31.9118 55.7647 31.5571 55.5882 30.9659 55.1176C30.5521 54.7647 30.2565 54.2941 30.1974 54.1765C30.0791 54.0588 30.1974 53.9412 30.2565 53.8824C30.3156 53.8235 30.3747 53.7647 30.493 53.6471C30.5521 53.5882 30.6112 53.5294 30.6112 53.4706C30.6703 53.3529 30.6703 53.3529 30.6112 53.2353C30.6112 53.1176 30.3156 52.4706 30.1974 52.1765C30.0791 51.9412 29.9609 51.9412 29.9018 51.9412C29.7836 51.9412 29.7836 51.9412 29.6653 51.9412C29.5471 51.9412 29.3697 52 29.2515 52.1176C29.1333 52.2353 28.7785 52.5882 28.7785 53.2941C28.7785 54 29.3106 54.6471 29.3106 54.7059C29.3697 54.8235 30.2565 56.1765 31.6753 56.7647C31.9709 56.8824 32.2665 57 32.4439 57.0588C32.7395 57.1765 33.0942 57.1765 33.2715 57.1176C33.508 57.0588 34.0992 56.7647 34.2174 56.4706C34.3356 56.1765 34.3356 55.8824 34.3356 55.8235C34.2765 55.7647 34.1583 55.7059 34.0992 55.6471Z" fill="#009344"/>
<path d="M23.7992 49.3012C23.6405 49.1069 23.4026 49 23.1295 49C22.981 49 22.8237 49.0312 22.662 49.093L11.6578 53.2942C11.0738 53.5171 10.9952 53.8516 11.0002 54.0311C11.0053 54.2107 11.1028 54.5402 11.6985 54.7297C11.702 54.7308 11.7056 54.7319 11.7092 54.7329L13.9917 55.3862L15.2262 58.9165C15.3945 59.3978 15.7723 59.6968 16.2122 59.6968C16.4896 59.6968 16.7625 59.5805 17.0013 59.3607L18.4132 58.0606L20.461 59.7097C20.4612 59.7099 20.4615 59.71 20.4617 59.7102L20.4811 59.7258C20.4829 59.7272 20.4848 59.7287 20.4866 59.7301C20.7142 59.9067 20.9626 59.9999 21.2053 60H21.2054C21.6796 60 22.0572 59.649 22.1672 59.1058L23.9702 50.2017C24.0426 49.8443 23.9819 49.5245 23.7992 49.3012ZM14.7553 55.2621L19.1591 53.0121L16.417 55.9261C16.3721 55.9738 16.3403 56.0322 16.3246 56.0958L15.7959 58.2378L14.7553 55.2621ZM16.4853 58.8003C16.467 58.817 16.4487 58.832 16.4303 58.8458L16.9209 56.8587L17.8132 57.5774L16.4853 58.8003ZM23.2237 50.0505L21.4207 58.9546C21.4033 59.0398 21.3479 59.2381 21.2053 59.2381C21.1349 59.2381 21.0465 59.1997 20.9559 59.13L18.6354 57.2614C18.6351 57.2611 18.6347 57.2608 18.6343 57.2606L17.2536 56.1486L21.219 51.9346C21.346 51.7996 21.3575 51.593 21.2463 51.4448C21.135 51.2966 20.9334 51.25 20.7684 51.3343L14.2464 54.6666L11.9328 54.0046L22.9337 49.8048C23.0266 49.7692 23.0915 49.7618 23.1295 49.7618C23.1528 49.7618 23.1942 49.7646 23.2096 49.7835C23.2298 49.8082 23.2556 49.8924 23.2237 50.0505Z" fill="#009344"/>
</svg>
